G04 #@! TF.GenerationSoftware,KiCad,Pcbnew,(5.1.2)-1*
G04 #@! TF.CreationDate,2019-10-01T23:28:24-05:00*
G04 #@! TF.ProjectId,nyan,6e79616e-2e6b-4696-9361-645f70636258,rev?*
G04 #@! TF.SameCoordinates,Original*
G04 #@! TF.FileFunction,Legend,Top*
G04 #@! TF.FilePolarity,Positive*
%FSLAX46Y46*%
G04 Gerber Fmt 4.6, Leading zero omitted, Abs format (unit mm)*
G04 Created by KiCad (PCBNEW (5.1.2)-1) date 2019-10-01 23:28:24*
%MOMM*%
%LPD*%
G04 APERTURE LIST*
%ADD10C,0.010000*%
G04 APERTURE END LIST*
D10*
G36*
X168385067Y-73911460D02*
G01*
X166670567Y-73911460D01*
X166670567Y-72196960D01*
X168385067Y-72196960D01*
X168385067Y-73911460D01*
X168385067Y-73911460D01*
G37*
X168385067Y-73911460D02*
X166670567Y-73911460D01*
X166670567Y-72196960D01*
X168385067Y-72196960D01*
X168385067Y-73911460D01*
G36*
X158394400Y-73911460D02*
G01*
X156701067Y-73911460D01*
X156701067Y-72196960D01*
X158394400Y-72196960D01*
X158394400Y-73911460D01*
X158394400Y-73911460D01*
G37*
X158394400Y-73911460D02*
X156701067Y-73911460D01*
X156701067Y-72196960D01*
X158394400Y-72196960D01*
X158394400Y-73911460D01*
G36*
X172359320Y-77787500D02*
G01*
X169367200Y-77784960D01*
X169362120Y-74950320D01*
X172463460Y-74950320D01*
X172463460Y-77787500D01*
X172359320Y-77787500D01*
G37*
X172359320Y-77787500D02*
X169367200Y-77784960D01*
X169362120Y-74950320D01*
X172463460Y-74950320D01*
X172463460Y-77787500D01*
X172359320Y-77787500D01*
G36*
X156785734Y-77848460D02*
G01*
X153525781Y-77848460D01*
X153531216Y-76361502D01*
X153536650Y-74874544D01*
X155161192Y-74869120D01*
X156789120Y-74869040D01*
X156785734Y-77848460D01*
X156785734Y-77848460D01*
G37*
X156785734Y-77848460D02*
X153525781Y-77848460D01*
X153531216Y-76361502D01*
X153536650Y-74874544D01*
X155161192Y-74869120D01*
X156789120Y-74869040D01*
X156785734Y-77848460D01*
G36*
X140386859Y-59994520D02*
G01*
X140460296Y-59994542D01*
X140574536Y-59994588D01*
X140728051Y-59994656D01*
X140919309Y-59994746D01*
X141146782Y-59994858D01*
X141408940Y-59994990D01*
X141704252Y-59995141D01*
X142031190Y-59995311D01*
X142388223Y-59995499D01*
X142773821Y-59995704D01*
X143186456Y-59995925D01*
X143624596Y-59996161D01*
X144086714Y-59996412D01*
X144571277Y-59996677D01*
X145076758Y-59996954D01*
X145601626Y-59997244D01*
X146144351Y-59997544D01*
X146703404Y-59997855D01*
X147277255Y-59998176D01*
X147864375Y-59998505D01*
X148463232Y-59998843D01*
X149072299Y-59999187D01*
X149690044Y-59999538D01*
X150171150Y-59999812D01*
X159198734Y-60004960D01*
X159198734Y-60978627D01*
X160235900Y-60978627D01*
X160235900Y-61973460D01*
X161146067Y-61973460D01*
X161146067Y-67773127D01*
X159431567Y-67773127D01*
X159431567Y-66397294D01*
X157907567Y-66397294D01*
X157907567Y-65000294D01*
X156425900Y-65000294D01*
X156425900Y-63497460D01*
X153631900Y-63497460D01*
X153631900Y-65000294D01*
X152192567Y-65000294D01*
X152192567Y-70821127D01*
X148054060Y-70822820D01*
X148054060Y-72087740D01*
X149227540Y-72087740D01*
X149222460Y-70824513D01*
X150769320Y-70822820D01*
X150769320Y-78244700D01*
X152171400Y-78250627D01*
X152179020Y-79087980D01*
X151244300Y-79087980D01*
X151137620Y-79087980D01*
X150992840Y-79087980D01*
X150804880Y-79087980D01*
X150588980Y-79087980D01*
X150342600Y-79087980D01*
X150055580Y-79087980D01*
X149740620Y-79087980D01*
X149400260Y-79087980D01*
X149044660Y-79087980D01*
X148654750Y-79087980D01*
X148247100Y-79087980D01*
X147817840Y-79087980D01*
X147398740Y-79087980D01*
X146913600Y-79087980D01*
X146466560Y-79087980D01*
X145978880Y-79087980D01*
X145503900Y-79087980D01*
X145023840Y-79087980D01*
X144922240Y-79087980D01*
X139593320Y-79089250D01*
X139593320Y-78024990D01*
X138751734Y-78017794D01*
X138751734Y-77022960D01*
X137608734Y-77022960D01*
X137608734Y-75710627D01*
X142117234Y-75710627D01*
X142117234Y-76959460D01*
X143344900Y-76959460D01*
X143344900Y-75710627D01*
X142117234Y-75710627D01*
X137608734Y-75710627D01*
X137608734Y-74398294D01*
X146603720Y-74399140D01*
X146603720Y-75664060D01*
X147208240Y-75663326D01*
X147830540Y-75664060D01*
X147830540Y-75029060D01*
X147830540Y-74396600D01*
X146606260Y-74396600D01*
X137608734Y-74398294D01*
X137608734Y-72133460D01*
X140000567Y-72133460D01*
X140000567Y-73382294D01*
X141228234Y-73382294D01*
X141228234Y-72133460D01*
X140000567Y-72133460D01*
X137608734Y-72133460D01*
X137608734Y-69297127D01*
X142498234Y-69297127D01*
X142498234Y-70545960D01*
X143725900Y-70545960D01*
X143725900Y-69297127D01*
X142498234Y-69297127D01*
X137608734Y-69297127D01*
X137608734Y-66630127D01*
X146075400Y-66630127D01*
X146075400Y-67878960D01*
X147303067Y-67878960D01*
X147303067Y-66630127D01*
X146075400Y-66630127D01*
X137608734Y-66630127D01*
X137608734Y-63349294D01*
X141249400Y-63349294D01*
X141249400Y-64619294D01*
X142477067Y-64619294D01*
X142477067Y-63349294D01*
X141249400Y-63349294D01*
X137608734Y-63349294D01*
X137608734Y-62693127D01*
X157780567Y-62693127D01*
X157780567Y-63920794D01*
X159008234Y-63920794D01*
X159008234Y-62693127D01*
X157780567Y-62693127D01*
X137608734Y-62693127D01*
X137608734Y-61973460D01*
X138751734Y-61973460D01*
X138751734Y-61147960D01*
X147514734Y-61147960D01*
X147514734Y-62396794D01*
X148742400Y-62396794D01*
X148742400Y-61147960D01*
X151959734Y-61147960D01*
X151959734Y-62375627D01*
X153166234Y-62375627D01*
X153166234Y-61147960D01*
X151959734Y-61147960D01*
X148742400Y-61147960D01*
X147514734Y-61147960D01*
X138751734Y-61147960D01*
X138751734Y-60978627D01*
X139621260Y-60980320D01*
X139624468Y-60486502D01*
X139630150Y-59989720D01*
X140386859Y-59994520D01*
X140386859Y-59994520D01*
G37*
X140386859Y-59994520D02*
X140460296Y-59994542D01*
X140574536Y-59994588D01*
X140728051Y-59994656D01*
X140919309Y-59994746D01*
X141146782Y-59994858D01*
X141408940Y-59994990D01*
X141704252Y-59995141D01*
X142031190Y-59995311D01*
X142388223Y-59995499D01*
X142773821Y-59995704D01*
X143186456Y-59995925D01*
X143624596Y-59996161D01*
X144086714Y-59996412D01*
X144571277Y-59996677D01*
X145076758Y-59996954D01*
X145601626Y-59997244D01*
X146144351Y-59997544D01*
X146703404Y-59997855D01*
X147277255Y-59998176D01*
X147864375Y-59998505D01*
X148463232Y-59998843D01*
X149072299Y-59999187D01*
X149690044Y-59999538D01*
X150171150Y-59999812D01*
X159198734Y-60004960D01*
X159198734Y-60978627D01*
X160235900Y-60978627D01*
X160235900Y-61973460D01*
X161146067Y-61973460D01*
X161146067Y-67773127D01*
X159431567Y-67773127D01*
X159431567Y-66397294D01*
X157907567Y-66397294D01*
X157907567Y-65000294D01*
X156425900Y-65000294D01*
X156425900Y-63497460D01*
X153631900Y-63497460D01*
X153631900Y-65000294D01*
X152192567Y-65000294D01*
X152192567Y-70821127D01*
X148054060Y-70822820D01*
X148054060Y-72087740D01*
X149227540Y-72087740D01*
X149222460Y-70824513D01*
X150769320Y-70822820D01*
X150769320Y-78244700D01*
X152171400Y-78250627D01*
X152179020Y-79087980D01*
X151244300Y-79087980D01*
X151137620Y-79087980D01*
X150992840Y-79087980D01*
X150804880Y-79087980D01*
X150588980Y-79087980D01*
X150342600Y-79087980D01*
X150055580Y-79087980D01*
X149740620Y-79087980D01*
X149400260Y-79087980D01*
X149044660Y-79087980D01*
X148654750Y-79087980D01*
X148247100Y-79087980D01*
X147817840Y-79087980D01*
X147398740Y-79087980D01*
X146913600Y-79087980D01*
X146466560Y-79087980D01*
X145978880Y-79087980D01*
X145503900Y-79087980D01*
X145023840Y-79087980D01*
X144922240Y-79087980D01*
X139593320Y-79089250D01*
X139593320Y-78024990D01*
X138751734Y-78017794D01*
X138751734Y-77022960D01*
X137608734Y-77022960D01*
X137608734Y-75710627D01*
X142117234Y-75710627D01*
X142117234Y-76959460D01*
X143344900Y-76959460D01*
X143344900Y-75710627D01*
X142117234Y-75710627D01*
X137608734Y-75710627D01*
X137608734Y-74398294D01*
X146603720Y-74399140D01*
X146603720Y-75664060D01*
X147208240Y-75663326D01*
X147830540Y-75664060D01*
X147830540Y-75029060D01*
X147830540Y-74396600D01*
X146606260Y-74396600D01*
X137608734Y-74398294D01*
X137608734Y-72133460D01*
X140000567Y-72133460D01*
X140000567Y-73382294D01*
X141228234Y-73382294D01*
X141228234Y-72133460D01*
X140000567Y-72133460D01*
X137608734Y-72133460D01*
X137608734Y-69297127D01*
X142498234Y-69297127D01*
X142498234Y-70545960D01*
X143725900Y-70545960D01*
X143725900Y-69297127D01*
X142498234Y-69297127D01*
X137608734Y-69297127D01*
X137608734Y-66630127D01*
X146075400Y-66630127D01*
X146075400Y-67878960D01*
X147303067Y-67878960D01*
X147303067Y-66630127D01*
X146075400Y-66630127D01*
X137608734Y-66630127D01*
X137608734Y-63349294D01*
X141249400Y-63349294D01*
X141249400Y-64619294D01*
X142477067Y-64619294D01*
X142477067Y-63349294D01*
X141249400Y-63349294D01*
X137608734Y-63349294D01*
X137608734Y-62693127D01*
X157780567Y-62693127D01*
X157780567Y-63920794D01*
X159008234Y-63920794D01*
X159008234Y-62693127D01*
X157780567Y-62693127D01*
X137608734Y-62693127D01*
X137608734Y-61973460D01*
X138751734Y-61973460D01*
X138751734Y-61147960D01*
X147514734Y-61147960D01*
X147514734Y-62396794D01*
X148742400Y-62396794D01*
X148742400Y-61147960D01*
X151959734Y-61147960D01*
X151959734Y-62375627D01*
X153166234Y-62375627D01*
X153166234Y-61147960D01*
X151959734Y-61147960D01*
X148742400Y-61147960D01*
X147514734Y-61147960D01*
X138751734Y-61147960D01*
X138751734Y-60978627D01*
X139621260Y-60980320D01*
X139624468Y-60486502D01*
X139630150Y-59989720D01*
X140386859Y-59994520D01*
M02*
