G04 #@! TF.GenerationSoftware,KiCad,Pcbnew,(5.1.2)-1*
G04 #@! TF.CreationDate,2019-10-01T23:28:24-05:00*
G04 #@! TF.ProjectId,nyan,6e79616e-2e6b-4696-9361-645f70636258,rev?*
G04 #@! TF.SameCoordinates,Original*
G04 #@! TF.FileFunction,Soldermask,Top*
G04 #@! TF.FilePolarity,Negative*
%FSLAX46Y46*%
G04 Gerber Fmt 4.6, Leading zero omitted, Abs format (unit mm)*
G04 Created by KiCad (PCBNEW (5.1.2)-1) date 2019-10-01 23:28:24*
%MOMM*%
%LPD*%
G04 APERTURE LIST*
%ADD10C,0.100000*%
%ADD11C,0.010000*%
G04 APERTURE END LIST*
D10*
G36*
X134696200Y-72415400D02*
G01*
X128168400Y-72440800D01*
X128168400Y-73888600D01*
X125399800Y-73888600D01*
X125374400Y-77063600D01*
X127101600Y-77063600D01*
X127101600Y-78105000D01*
X133731000Y-78079600D01*
X133731000Y-76885800D01*
X134731125Y-76885800D01*
X134721600Y-83794600D01*
X128117600Y-83794600D01*
X128117600Y-82372200D01*
X124307600Y-82372200D01*
X124307600Y-83794600D01*
X120980200Y-83820000D01*
X120777000Y-83820000D01*
X120777000Y-82372200D01*
X117729000Y-82372200D01*
X117729000Y-58572400D01*
X123520200Y-58572400D01*
X123520200Y-60071000D01*
X128143000Y-60071000D01*
X128143000Y-58496200D01*
X134734300Y-58496200D01*
X134696200Y-72415400D01*
G37*
X134696200Y-72415400D02*
X128168400Y-72440800D01*
X128168400Y-73888600D01*
X125399800Y-73888600D01*
X125374400Y-77063600D01*
X127101600Y-77063600D01*
X127101600Y-78105000D01*
X133731000Y-78079600D01*
X133731000Y-76885800D01*
X134731125Y-76885800D01*
X134721600Y-83794600D01*
X128117600Y-83794600D01*
X128117600Y-82372200D01*
X124307600Y-82372200D01*
X124307600Y-83794600D01*
X120980200Y-83820000D01*
X120777000Y-83820000D01*
X120777000Y-82372200D01*
X117729000Y-82372200D01*
X117729000Y-58572400D01*
X123520200Y-58572400D01*
X123520200Y-60071000D01*
X128143000Y-60071000D01*
X128143000Y-58496200D01*
X134734300Y-58496200D01*
X134696200Y-72415400D01*
D11*
G36*
X134746182Y-74813341D02*
G01*
X134744460Y-75684380D01*
X133814609Y-75684391D01*
X132897880Y-75681840D01*
X132900420Y-76967080D01*
X126665567Y-76959460D01*
X126665567Y-75160294D01*
X128209040Y-75161140D01*
X128209040Y-74957940D01*
X128209040Y-74861420D01*
X128209040Y-74739500D01*
X128209040Y-74569320D01*
X128210328Y-74453225D01*
X128210624Y-74374836D01*
X128209040Y-73982580D01*
X129570173Y-73981220D01*
X129837180Y-73982580D01*
X130141980Y-73980040D01*
X130450614Y-73980905D01*
X130782060Y-73982580D01*
X131142740Y-73982580D01*
X131498340Y-73982580D01*
X131861560Y-73982580D01*
X132212080Y-73982580D01*
X132544820Y-73982580D01*
X132869940Y-73982580D01*
X132882640Y-73982580D01*
X134747000Y-73982580D01*
X134746182Y-74813341D01*
X134746182Y-74813341D01*
G37*
X134746182Y-74813341D02*
X134744460Y-75684380D01*
X133814609Y-75684391D01*
X132897880Y-75681840D01*
X132900420Y-76967080D01*
X126665567Y-76959460D01*
X126665567Y-75160294D01*
X128209040Y-75161140D01*
X128209040Y-74957940D01*
X128209040Y-74861420D01*
X128209040Y-74739500D01*
X128209040Y-74569320D01*
X128210328Y-74453225D01*
X128210624Y-74374836D01*
X128209040Y-73982580D01*
X129570173Y-73981220D01*
X129837180Y-73982580D01*
X130141980Y-73980040D01*
X130450614Y-73980905D01*
X130782060Y-73982580D01*
X131142740Y-73982580D01*
X131498340Y-73982580D01*
X131861560Y-73982580D01*
X132212080Y-73982580D01*
X132544820Y-73982580D01*
X132869940Y-73982580D01*
X132882640Y-73982580D01*
X134747000Y-73982580D01*
X134746182Y-74813341D01*
G36*
X162712400Y-58692627D02*
G01*
X163791900Y-58692627D01*
X163791900Y-67773127D01*
X161019067Y-67773127D01*
X161019067Y-62100460D01*
X160108900Y-62100460D01*
X160108900Y-61105627D01*
X159071734Y-61105627D01*
X159071734Y-60131960D01*
X155044775Y-60131956D01*
X154642135Y-60131893D01*
X154201021Y-60131711D01*
X153725293Y-60131414D01*
X153218809Y-60131007D01*
X152685431Y-60130498D01*
X152129015Y-60129891D01*
X151553423Y-60129192D01*
X150962514Y-60128406D01*
X150360146Y-60127540D01*
X149750180Y-60126598D01*
X149136474Y-60125587D01*
X148522889Y-60124512D01*
X147913283Y-60123379D01*
X147311515Y-60122193D01*
X146721446Y-60120960D01*
X146146935Y-60119685D01*
X145591840Y-60118375D01*
X145382192Y-60117858D01*
X139618720Y-60126880D01*
X139613640Y-60972700D01*
X138744960Y-60970160D01*
X138750040Y-61963300D01*
X137604500Y-61970920D01*
X137612120Y-77030580D01*
X138744960Y-77025500D01*
X138747500Y-77467460D01*
X138747500Y-78026260D01*
X139296140Y-78026260D01*
X139598400Y-78026260D01*
X139598400Y-79093060D01*
X145757900Y-79095600D01*
X152179020Y-79098140D01*
X152171400Y-79626460D01*
X153695400Y-79626460D01*
X153680160Y-81150460D01*
X151988520Y-81150460D01*
X151833580Y-81150460D01*
X151622760Y-81150460D01*
X151389080Y-81150460D01*
X151173180Y-81150460D01*
X150825200Y-81150460D01*
X150550880Y-81150460D01*
X150182580Y-81150460D01*
X149750780Y-81150460D01*
X149303740Y-81150460D01*
X148861780Y-81150460D01*
X148399500Y-81150460D01*
X147883880Y-81150460D01*
X147391120Y-81150460D01*
X146908520Y-81150460D01*
X146438620Y-81150460D01*
X145826480Y-81153000D01*
X145315940Y-81150460D01*
X144800320Y-81147920D01*
X144459960Y-81147920D01*
X144196859Y-81147920D01*
X138115040Y-81153000D01*
X138115040Y-79794100D01*
X136028185Y-79795794D01*
X136014132Y-75038585D01*
X136012751Y-74566543D01*
X136011284Y-74056387D01*
X136009741Y-73512337D01*
X136008134Y-72938610D01*
X136006474Y-72339427D01*
X136004772Y-71719007D01*
X136003040Y-71081569D01*
X136001289Y-70431331D01*
X135999531Y-69772514D01*
X135997775Y-69109337D01*
X135996034Y-68446017D01*
X135994319Y-67786776D01*
X135992641Y-67135832D01*
X135991012Y-66497404D01*
X135989442Y-65875711D01*
X135987943Y-65274972D01*
X135986526Y-64699408D01*
X135986009Y-64487002D01*
X135971938Y-58692627D01*
X137121900Y-58692627D01*
X137121900Y-57570794D01*
X162712400Y-57570794D01*
X162712400Y-58692627D01*
X162712400Y-58692627D01*
G37*
X162712400Y-58692627D02*
X163791900Y-58692627D01*
X163791900Y-67773127D01*
X161019067Y-67773127D01*
X161019067Y-62100460D01*
X160108900Y-62100460D01*
X160108900Y-61105627D01*
X159071734Y-61105627D01*
X159071734Y-60131960D01*
X155044775Y-60131956D01*
X154642135Y-60131893D01*
X154201021Y-60131711D01*
X153725293Y-60131414D01*
X153218809Y-60131007D01*
X152685431Y-60130498D01*
X152129015Y-60129891D01*
X151553423Y-60129192D01*
X150962514Y-60128406D01*
X150360146Y-60127540D01*
X149750180Y-60126598D01*
X149136474Y-60125587D01*
X148522889Y-60124512D01*
X147913283Y-60123379D01*
X147311515Y-60122193D01*
X146721446Y-60120960D01*
X146146935Y-60119685D01*
X145591840Y-60118375D01*
X145382192Y-60117858D01*
X139618720Y-60126880D01*
X139613640Y-60972700D01*
X138744960Y-60970160D01*
X138750040Y-61963300D01*
X137604500Y-61970920D01*
X137612120Y-77030580D01*
X138744960Y-77025500D01*
X138747500Y-77467460D01*
X138747500Y-78026260D01*
X139296140Y-78026260D01*
X139598400Y-78026260D01*
X139598400Y-79093060D01*
X145757900Y-79095600D01*
X152179020Y-79098140D01*
X152171400Y-79626460D01*
X153695400Y-79626460D01*
X153680160Y-81150460D01*
X151988520Y-81150460D01*
X151833580Y-81150460D01*
X151622760Y-81150460D01*
X151389080Y-81150460D01*
X151173180Y-81150460D01*
X150825200Y-81150460D01*
X150550880Y-81150460D01*
X150182580Y-81150460D01*
X149750780Y-81150460D01*
X149303740Y-81150460D01*
X148861780Y-81150460D01*
X148399500Y-81150460D01*
X147883880Y-81150460D01*
X147391120Y-81150460D01*
X146908520Y-81150460D01*
X146438620Y-81150460D01*
X145826480Y-81153000D01*
X145315940Y-81150460D01*
X144800320Y-81147920D01*
X144459960Y-81147920D01*
X144196859Y-81147920D01*
X138115040Y-81153000D01*
X138115040Y-79794100D01*
X136028185Y-79795794D01*
X136014132Y-75038585D01*
X136012751Y-74566543D01*
X136011284Y-74056387D01*
X136009741Y-73512337D01*
X136008134Y-72938610D01*
X136006474Y-72339427D01*
X136004772Y-71719007D01*
X136003040Y-71081569D01*
X136001289Y-70431331D01*
X135999531Y-69772514D01*
X135997775Y-69109337D01*
X135996034Y-68446017D01*
X135994319Y-67786776D01*
X135992641Y-67135832D01*
X135991012Y-66497404D01*
X135989442Y-65875711D01*
X135987943Y-65274972D01*
X135986526Y-64699408D01*
X135986009Y-64487002D01*
X135971938Y-58692627D01*
X137121900Y-58692627D01*
X137121900Y-57570794D01*
X162712400Y-57570794D01*
X162712400Y-58692627D01*
G36*
X156214234Y-66481960D02*
G01*
X157801734Y-66481960D01*
X157801734Y-67773127D01*
X159325734Y-67773127D01*
X159325734Y-69233627D01*
X165104234Y-69233627D01*
X165104234Y-67455627D01*
X166670567Y-67455627D01*
X166670567Y-66651294D01*
X168342734Y-66651294D01*
X168342734Y-65106127D01*
X171073234Y-65106127D01*
X171073234Y-71075127D01*
X172660734Y-71075127D01*
X172660734Y-77996627D01*
X171094400Y-77996627D01*
X171094400Y-79478294D01*
X169358734Y-79478294D01*
X169358734Y-81192794D01*
X154796067Y-81192794D01*
X154796067Y-79478294D01*
X153399067Y-79478294D01*
X153399067Y-77996627D01*
X152150234Y-77996627D01*
X152150234Y-74948627D01*
X153535380Y-74876660D01*
X153530300Y-77853540D01*
X156791660Y-77848460D01*
X156789120Y-76758800D01*
X157949900Y-76726627D01*
X157949900Y-79266627D01*
X167644234Y-79266627D01*
X167644234Y-76726627D01*
X166416567Y-76726627D01*
X166416567Y-78081294D01*
X163410900Y-78081294D01*
X163410900Y-76726627D01*
X162183234Y-76726627D01*
X162183234Y-78081294D01*
X159177567Y-78081294D01*
X159177567Y-76726627D01*
X157949900Y-76726627D01*
X156789120Y-76748640D01*
X156781500Y-74866500D01*
X153537920Y-74866500D01*
X152150234Y-74948627D01*
X152150234Y-72345127D01*
X156849234Y-72345127D01*
X156849234Y-74800460D01*
X159304567Y-74800460D01*
X159304567Y-73720960D01*
X163855400Y-73720960D01*
X163855400Y-74948627D01*
X165104234Y-74948627D01*
X169358734Y-74948627D01*
X169358734Y-77784960D01*
X172470234Y-77784960D01*
X172470234Y-74948627D01*
X169358734Y-74948627D01*
X165104234Y-74948627D01*
X165104234Y-73720960D01*
X163855400Y-73720960D01*
X159304567Y-73720960D01*
X159304567Y-72345127D01*
X166818734Y-72345127D01*
X166818734Y-74800460D01*
X169231734Y-74800460D01*
X169231734Y-72345127D01*
X166818734Y-72345127D01*
X159304567Y-72345127D01*
X156849234Y-72345127D01*
X152150234Y-72345127D01*
X152150234Y-71138627D01*
X153801234Y-71138627D01*
X153817320Y-64940180D01*
X154421840Y-64940180D01*
X154645360Y-64935100D01*
X154876500Y-64935100D01*
X155092400Y-64935100D01*
X155318460Y-64935100D01*
X155518633Y-64935100D01*
X155653740Y-64935100D01*
X156212540Y-64935100D01*
X156214234Y-66481960D01*
X156214234Y-66481960D01*
G37*
X156214234Y-66481960D02*
X157801734Y-66481960D01*
X157801734Y-67773127D01*
X159325734Y-67773127D01*
X159325734Y-69233627D01*
X165104234Y-69233627D01*
X165104234Y-67455627D01*
X166670567Y-67455627D01*
X166670567Y-66651294D01*
X168342734Y-66651294D01*
X168342734Y-65106127D01*
X171073234Y-65106127D01*
X171073234Y-71075127D01*
X172660734Y-71075127D01*
X172660734Y-77996627D01*
X171094400Y-77996627D01*
X171094400Y-79478294D01*
X169358734Y-79478294D01*
X169358734Y-81192794D01*
X154796067Y-81192794D01*
X154796067Y-79478294D01*
X153399067Y-79478294D01*
X153399067Y-77996627D01*
X152150234Y-77996627D01*
X152150234Y-74948627D01*
X153535380Y-74876660D01*
X153530300Y-77853540D01*
X156791660Y-77848460D01*
X156789120Y-76758800D01*
X157949900Y-76726627D01*
X157949900Y-79266627D01*
X167644234Y-79266627D01*
X167644234Y-76726627D01*
X166416567Y-76726627D01*
X166416567Y-78081294D01*
X163410900Y-78081294D01*
X163410900Y-76726627D01*
X162183234Y-76726627D01*
X162183234Y-78081294D01*
X159177567Y-78081294D01*
X159177567Y-76726627D01*
X157949900Y-76726627D01*
X156789120Y-76748640D01*
X156781500Y-74866500D01*
X153537920Y-74866500D01*
X152150234Y-74948627D01*
X152150234Y-72345127D01*
X156849234Y-72345127D01*
X156849234Y-74800460D01*
X159304567Y-74800460D01*
X159304567Y-73720960D01*
X163855400Y-73720960D01*
X163855400Y-74948627D01*
X165104234Y-74948627D01*
X169358734Y-74948627D01*
X169358734Y-77784960D01*
X172470234Y-77784960D01*
X172470234Y-74948627D01*
X169358734Y-74948627D01*
X165104234Y-74948627D01*
X165104234Y-73720960D01*
X163855400Y-73720960D01*
X159304567Y-73720960D01*
X159304567Y-72345127D01*
X166818734Y-72345127D01*
X166818734Y-74800460D01*
X169231734Y-74800460D01*
X169231734Y-72345127D01*
X166818734Y-72345127D01*
X159304567Y-72345127D01*
X156849234Y-72345127D01*
X152150234Y-72345127D01*
X152150234Y-71138627D01*
X153801234Y-71138627D01*
X153817320Y-64940180D01*
X154421840Y-64940180D01*
X154645360Y-64935100D01*
X154876500Y-64935100D01*
X155092400Y-64935100D01*
X155318460Y-64935100D01*
X155518633Y-64935100D01*
X155653740Y-64935100D01*
X156212540Y-64935100D01*
X156214234Y-66481960D01*
G36*
X137926234Y-82695627D02*
G01*
X139238567Y-82695627D01*
X139238622Y-83050169D01*
X139239434Y-83192517D01*
X139241647Y-83361579D01*
X139244982Y-83541769D01*
X139249162Y-83717501D01*
X139252565Y-83833335D01*
X139266453Y-84261960D01*
X136197340Y-84256880D01*
X136204608Y-83210730D01*
X136201706Y-82983247D01*
X136199006Y-82751891D01*
X136196572Y-82523486D01*
X136194467Y-82304860D01*
X136192752Y-82102837D01*
X136191491Y-81924245D01*
X136190748Y-81775908D01*
X136190567Y-81686730D01*
X136190567Y-81213960D01*
X137926234Y-81213960D01*
X137926234Y-82695627D01*
X137926234Y-82695627D01*
G37*
X137926234Y-82695627D02*
X139238567Y-82695627D01*
X139238622Y-83050169D01*
X139239434Y-83192517D01*
X139241647Y-83361579D01*
X139244982Y-83541769D01*
X139249162Y-83717501D01*
X139252565Y-83833335D01*
X139266453Y-84261960D01*
X136197340Y-84256880D01*
X136204608Y-83210730D01*
X136201706Y-82983247D01*
X136199006Y-82751891D01*
X136196572Y-82523486D01*
X136194467Y-82304860D01*
X136192752Y-82102837D01*
X136191491Y-81924245D01*
X136190748Y-81775908D01*
X136190567Y-81686730D01*
X136190567Y-81213960D01*
X137926234Y-81213960D01*
X137926234Y-82695627D01*
G36*
X146943234Y-84256669D02*
G01*
X146877088Y-84269898D01*
X146845265Y-84272101D01*
X146774690Y-84274189D01*
X146668943Y-84276133D01*
X146531606Y-84277900D01*
X146366259Y-84279461D01*
X146176484Y-84280786D01*
X145965860Y-84281844D01*
X145737969Y-84282604D01*
X145496392Y-84283036D01*
X145321338Y-84283127D01*
X143831734Y-84283127D01*
X143831734Y-82695627D01*
X146943234Y-82695627D01*
X146943234Y-84256669D01*
X146943234Y-84256669D01*
G37*
X146943234Y-84256669D02*
X146877088Y-84269898D01*
X146845265Y-84272101D01*
X146774690Y-84274189D01*
X146668943Y-84276133D01*
X146531606Y-84277900D01*
X146366259Y-84279461D01*
X146176484Y-84280786D01*
X145965860Y-84281844D01*
X145737969Y-84282604D01*
X145496392Y-84283036D01*
X145321338Y-84283127D01*
X143831734Y-84283127D01*
X143831734Y-82695627D01*
X146943234Y-82695627D01*
X146943234Y-84256669D01*
G36*
X168363900Y-84346627D02*
G01*
X165210067Y-84346627D01*
X165210067Y-82737960D01*
X168363900Y-82737960D01*
X168363900Y-84346627D01*
X168363900Y-84346627D01*
G37*
X168363900Y-84346627D02*
X165210067Y-84346627D01*
X165210067Y-82737960D01*
X168363900Y-82737960D01*
X168363900Y-84346627D01*
G36*
X160786234Y-84346627D02*
G01*
X157632400Y-84346627D01*
X157632400Y-82737960D01*
X160786234Y-82737960D01*
X160786234Y-84346627D01*
X160786234Y-84346627D01*
G37*
X160786234Y-84346627D02*
X157632400Y-84346627D01*
X157632400Y-82737960D01*
X160786234Y-82737960D01*
X160786234Y-84346627D01*
M02*
