G04 #@! TF.GenerationSoftware,KiCad,Pcbnew,(5.1.2)-1*
G04 #@! TF.CreationDate,2019-10-01T23:28:24-05:00*
G04 #@! TF.ProjectId,nyan,6e79616e-2e6b-4696-9361-645f70636258,rev?*
G04 #@! TF.SameCoordinates,Original*
G04 #@! TF.FileFunction,Copper,L2,Bot*
G04 #@! TF.FilePolarity,Positive*
%FSLAX46Y46*%
G04 Gerber Fmt 4.6, Leading zero omitted, Abs format (unit mm)*
G04 Created by KiCad (PCBNEW (5.1.2)-1) date 2019-10-01 23:28:24*
%MOMM*%
%LPD*%
G04 APERTURE LIST*
%ADD10C,0.100000*%
%ADD11C,1.150000*%
%ADD12R,2.000000X0.980000*%
%ADD13R,0.650000X1.700000*%
%ADD14R,1.700000X1.700000*%
%ADD15O,1.700000X1.700000*%
%ADD16C,5.000000*%
%ADD17R,0.700000X2.000000*%
%ADD18R,1.500000X0.800000*%
%ADD19C,2.000000*%
%ADD20C,1.500000*%
%ADD21C,0.800000*%
%ADD22C,0.700000*%
%ADD23C,0.381000*%
%ADD24C,0.250000*%
%ADD25C,0.254000*%
G04 APERTURE END LIST*
D10*
G36*
X129644505Y-75755204D02*
G01*
X129668773Y-75758804D01*
X129692572Y-75764765D01*
X129715671Y-75773030D01*
X129737850Y-75783520D01*
X129758893Y-75796132D01*
X129778599Y-75810747D01*
X129796777Y-75827223D01*
X129813253Y-75845401D01*
X129827868Y-75865107D01*
X129840480Y-75886150D01*
X129850970Y-75908329D01*
X129859235Y-75931428D01*
X129865196Y-75955227D01*
X129868796Y-75979495D01*
X129870000Y-76003999D01*
X129870000Y-76904001D01*
X129868796Y-76928505D01*
X129865196Y-76952773D01*
X129859235Y-76976572D01*
X129850970Y-76999671D01*
X129840480Y-77021850D01*
X129827868Y-77042893D01*
X129813253Y-77062599D01*
X129796777Y-77080777D01*
X129778599Y-77097253D01*
X129758893Y-77111868D01*
X129737850Y-77124480D01*
X129715671Y-77134970D01*
X129692572Y-77143235D01*
X129668773Y-77149196D01*
X129644505Y-77152796D01*
X129620001Y-77154000D01*
X128969999Y-77154000D01*
X128945495Y-77152796D01*
X128921227Y-77149196D01*
X128897428Y-77143235D01*
X128874329Y-77134970D01*
X128852150Y-77124480D01*
X128831107Y-77111868D01*
X128811401Y-77097253D01*
X128793223Y-77080777D01*
X128776747Y-77062599D01*
X128762132Y-77042893D01*
X128749520Y-77021850D01*
X128739030Y-76999671D01*
X128730765Y-76976572D01*
X128724804Y-76952773D01*
X128721204Y-76928505D01*
X128720000Y-76904001D01*
X128720000Y-76003999D01*
X128721204Y-75979495D01*
X128724804Y-75955227D01*
X128730765Y-75931428D01*
X128739030Y-75908329D01*
X128749520Y-75886150D01*
X128762132Y-75865107D01*
X128776747Y-75845401D01*
X128793223Y-75827223D01*
X128811401Y-75810747D01*
X128831107Y-75796132D01*
X128852150Y-75783520D01*
X128874329Y-75773030D01*
X128897428Y-75764765D01*
X128921227Y-75758804D01*
X128945495Y-75755204D01*
X128969999Y-75754000D01*
X129620001Y-75754000D01*
X129644505Y-75755204D01*
X129644505Y-75755204D01*
G37*
D11*
X129295000Y-76454000D03*
D10*
G36*
X127594505Y-75755204D02*
G01*
X127618773Y-75758804D01*
X127642572Y-75764765D01*
X127665671Y-75773030D01*
X127687850Y-75783520D01*
X127708893Y-75796132D01*
X127728599Y-75810747D01*
X127746777Y-75827223D01*
X127763253Y-75845401D01*
X127777868Y-75865107D01*
X127790480Y-75886150D01*
X127800970Y-75908329D01*
X127809235Y-75931428D01*
X127815196Y-75955227D01*
X127818796Y-75979495D01*
X127820000Y-76003999D01*
X127820000Y-76904001D01*
X127818796Y-76928505D01*
X127815196Y-76952773D01*
X127809235Y-76976572D01*
X127800970Y-76999671D01*
X127790480Y-77021850D01*
X127777868Y-77042893D01*
X127763253Y-77062599D01*
X127746777Y-77080777D01*
X127728599Y-77097253D01*
X127708893Y-77111868D01*
X127687850Y-77124480D01*
X127665671Y-77134970D01*
X127642572Y-77143235D01*
X127618773Y-77149196D01*
X127594505Y-77152796D01*
X127570001Y-77154000D01*
X126919999Y-77154000D01*
X126895495Y-77152796D01*
X126871227Y-77149196D01*
X126847428Y-77143235D01*
X126824329Y-77134970D01*
X126802150Y-77124480D01*
X126781107Y-77111868D01*
X126761401Y-77097253D01*
X126743223Y-77080777D01*
X126726747Y-77062599D01*
X126712132Y-77042893D01*
X126699520Y-77021850D01*
X126689030Y-76999671D01*
X126680765Y-76976572D01*
X126674804Y-76952773D01*
X126671204Y-76928505D01*
X126670000Y-76904001D01*
X126670000Y-76003999D01*
X126671204Y-75979495D01*
X126674804Y-75955227D01*
X126680765Y-75931428D01*
X126689030Y-75908329D01*
X126699520Y-75886150D01*
X126712132Y-75865107D01*
X126726747Y-75845401D01*
X126743223Y-75827223D01*
X126761401Y-75810747D01*
X126781107Y-75796132D01*
X126802150Y-75783520D01*
X126824329Y-75773030D01*
X126847428Y-75764765D01*
X126871227Y-75758804D01*
X126895495Y-75755204D01*
X126919999Y-75754000D01*
X127570001Y-75754000D01*
X127594505Y-75755204D01*
X127594505Y-75755204D01*
G37*
D11*
X127245000Y-76454000D03*
D12*
X120142000Y-70576000D03*
X120142000Y-68616000D03*
X123882000Y-70576000D03*
X123882000Y-68616000D03*
D13*
X135699500Y-69055000D03*
X136969500Y-69055000D03*
X138239500Y-69055000D03*
X139509500Y-69055000D03*
X139509500Y-61755000D03*
X138239500Y-61755000D03*
X136969500Y-61755000D03*
X135699500Y-61755000D03*
D12*
X120142000Y-75783000D03*
X120142000Y-73823000D03*
X123882000Y-75783000D03*
X123882000Y-73823000D03*
X120142000Y-80863000D03*
X120142000Y-78903000D03*
X123882000Y-80863000D03*
X123882000Y-78903000D03*
X128270000Y-70576000D03*
X128270000Y-68616000D03*
X132010000Y-70576000D03*
X132010000Y-68616000D03*
X129054300Y-81358300D03*
X129054300Y-79398300D03*
X132794300Y-81358300D03*
X132794300Y-79398300D03*
X123882000Y-62048000D03*
X123882000Y-64008000D03*
X120142000Y-62048000D03*
X120142000Y-64008000D03*
X132010000Y-62048000D03*
X132010000Y-64008000D03*
X128270000Y-62048000D03*
X128270000Y-64008000D03*
D10*
G36*
X127088105Y-65392004D02*
G01*
X127112373Y-65395604D01*
X127136172Y-65401565D01*
X127159271Y-65409830D01*
X127181450Y-65420320D01*
X127202493Y-65432932D01*
X127222199Y-65447547D01*
X127240377Y-65464023D01*
X127256853Y-65482201D01*
X127271468Y-65501907D01*
X127284080Y-65522950D01*
X127294570Y-65545129D01*
X127302835Y-65568228D01*
X127308796Y-65592027D01*
X127312396Y-65616295D01*
X127313600Y-65640799D01*
X127313600Y-66540801D01*
X127312396Y-66565305D01*
X127308796Y-66589573D01*
X127302835Y-66613372D01*
X127294570Y-66636471D01*
X127284080Y-66658650D01*
X127271468Y-66679693D01*
X127256853Y-66699399D01*
X127240377Y-66717577D01*
X127222199Y-66734053D01*
X127202493Y-66748668D01*
X127181450Y-66761280D01*
X127159271Y-66771770D01*
X127136172Y-66780035D01*
X127112373Y-66785996D01*
X127088105Y-66789596D01*
X127063601Y-66790800D01*
X126413599Y-66790800D01*
X126389095Y-66789596D01*
X126364827Y-66785996D01*
X126341028Y-66780035D01*
X126317929Y-66771770D01*
X126295750Y-66761280D01*
X126274707Y-66748668D01*
X126255001Y-66734053D01*
X126236823Y-66717577D01*
X126220347Y-66699399D01*
X126205732Y-66679693D01*
X126193120Y-66658650D01*
X126182630Y-66636471D01*
X126174365Y-66613372D01*
X126168404Y-66589573D01*
X126164804Y-66565305D01*
X126163600Y-66540801D01*
X126163600Y-65640799D01*
X126164804Y-65616295D01*
X126168404Y-65592027D01*
X126174365Y-65568228D01*
X126182630Y-65545129D01*
X126193120Y-65522950D01*
X126205732Y-65501907D01*
X126220347Y-65482201D01*
X126236823Y-65464023D01*
X126255001Y-65447547D01*
X126274707Y-65432932D01*
X126295750Y-65420320D01*
X126317929Y-65409830D01*
X126341028Y-65401565D01*
X126364827Y-65395604D01*
X126389095Y-65392004D01*
X126413599Y-65390800D01*
X127063601Y-65390800D01*
X127088105Y-65392004D01*
X127088105Y-65392004D01*
G37*
D11*
X126738600Y-66090800D03*
D10*
G36*
X125038105Y-65392004D02*
G01*
X125062373Y-65395604D01*
X125086172Y-65401565D01*
X125109271Y-65409830D01*
X125131450Y-65420320D01*
X125152493Y-65432932D01*
X125172199Y-65447547D01*
X125190377Y-65464023D01*
X125206853Y-65482201D01*
X125221468Y-65501907D01*
X125234080Y-65522950D01*
X125244570Y-65545129D01*
X125252835Y-65568228D01*
X125258796Y-65592027D01*
X125262396Y-65616295D01*
X125263600Y-65640799D01*
X125263600Y-66540801D01*
X125262396Y-66565305D01*
X125258796Y-66589573D01*
X125252835Y-66613372D01*
X125244570Y-66636471D01*
X125234080Y-66658650D01*
X125221468Y-66679693D01*
X125206853Y-66699399D01*
X125190377Y-66717577D01*
X125172199Y-66734053D01*
X125152493Y-66748668D01*
X125131450Y-66761280D01*
X125109271Y-66771770D01*
X125086172Y-66780035D01*
X125062373Y-66785996D01*
X125038105Y-66789596D01*
X125013601Y-66790800D01*
X124363599Y-66790800D01*
X124339095Y-66789596D01*
X124314827Y-66785996D01*
X124291028Y-66780035D01*
X124267929Y-66771770D01*
X124245750Y-66761280D01*
X124224707Y-66748668D01*
X124205001Y-66734053D01*
X124186823Y-66717577D01*
X124170347Y-66699399D01*
X124155732Y-66679693D01*
X124143120Y-66658650D01*
X124132630Y-66636471D01*
X124124365Y-66613372D01*
X124118404Y-66589573D01*
X124114804Y-66565305D01*
X124113600Y-66540801D01*
X124113600Y-65640799D01*
X124114804Y-65616295D01*
X124118404Y-65592027D01*
X124124365Y-65568228D01*
X124132630Y-65545129D01*
X124143120Y-65522950D01*
X124155732Y-65501907D01*
X124170347Y-65482201D01*
X124186823Y-65464023D01*
X124205001Y-65447547D01*
X124224707Y-65432932D01*
X124245750Y-65420320D01*
X124267929Y-65409830D01*
X124291028Y-65401565D01*
X124314827Y-65395604D01*
X124339095Y-65392004D01*
X124363599Y-65390800D01*
X125013601Y-65390800D01*
X125038105Y-65392004D01*
X125038105Y-65392004D01*
G37*
D11*
X124688600Y-66090800D03*
D10*
G36*
X130960005Y-65392004D02*
G01*
X130984273Y-65395604D01*
X131008072Y-65401565D01*
X131031171Y-65409830D01*
X131053350Y-65420320D01*
X131074393Y-65432932D01*
X131094099Y-65447547D01*
X131112277Y-65464023D01*
X131128753Y-65482201D01*
X131143368Y-65501907D01*
X131155980Y-65522950D01*
X131166470Y-65545129D01*
X131174735Y-65568228D01*
X131180696Y-65592027D01*
X131184296Y-65616295D01*
X131185500Y-65640799D01*
X131185500Y-66540801D01*
X131184296Y-66565305D01*
X131180696Y-66589573D01*
X131174735Y-66613372D01*
X131166470Y-66636471D01*
X131155980Y-66658650D01*
X131143368Y-66679693D01*
X131128753Y-66699399D01*
X131112277Y-66717577D01*
X131094099Y-66734053D01*
X131074393Y-66748668D01*
X131053350Y-66761280D01*
X131031171Y-66771770D01*
X131008072Y-66780035D01*
X130984273Y-66785996D01*
X130960005Y-66789596D01*
X130935501Y-66790800D01*
X130285499Y-66790800D01*
X130260995Y-66789596D01*
X130236727Y-66785996D01*
X130212928Y-66780035D01*
X130189829Y-66771770D01*
X130167650Y-66761280D01*
X130146607Y-66748668D01*
X130126901Y-66734053D01*
X130108723Y-66717577D01*
X130092247Y-66699399D01*
X130077632Y-66679693D01*
X130065020Y-66658650D01*
X130054530Y-66636471D01*
X130046265Y-66613372D01*
X130040304Y-66589573D01*
X130036704Y-66565305D01*
X130035500Y-66540801D01*
X130035500Y-65640799D01*
X130036704Y-65616295D01*
X130040304Y-65592027D01*
X130046265Y-65568228D01*
X130054530Y-65545129D01*
X130065020Y-65522950D01*
X130077632Y-65501907D01*
X130092247Y-65482201D01*
X130108723Y-65464023D01*
X130126901Y-65447547D01*
X130146607Y-65432932D01*
X130167650Y-65420320D01*
X130189829Y-65409830D01*
X130212928Y-65401565D01*
X130236727Y-65395604D01*
X130260995Y-65392004D01*
X130285499Y-65390800D01*
X130935501Y-65390800D01*
X130960005Y-65392004D01*
X130960005Y-65392004D01*
G37*
D11*
X130610500Y-66090800D03*
D10*
G36*
X133010005Y-65392004D02*
G01*
X133034273Y-65395604D01*
X133058072Y-65401565D01*
X133081171Y-65409830D01*
X133103350Y-65420320D01*
X133124393Y-65432932D01*
X133144099Y-65447547D01*
X133162277Y-65464023D01*
X133178753Y-65482201D01*
X133193368Y-65501907D01*
X133205980Y-65522950D01*
X133216470Y-65545129D01*
X133224735Y-65568228D01*
X133230696Y-65592027D01*
X133234296Y-65616295D01*
X133235500Y-65640799D01*
X133235500Y-66540801D01*
X133234296Y-66565305D01*
X133230696Y-66589573D01*
X133224735Y-66613372D01*
X133216470Y-66636471D01*
X133205980Y-66658650D01*
X133193368Y-66679693D01*
X133178753Y-66699399D01*
X133162277Y-66717577D01*
X133144099Y-66734053D01*
X133124393Y-66748668D01*
X133103350Y-66761280D01*
X133081171Y-66771770D01*
X133058072Y-66780035D01*
X133034273Y-66785996D01*
X133010005Y-66789596D01*
X132985501Y-66790800D01*
X132335499Y-66790800D01*
X132310995Y-66789596D01*
X132286727Y-66785996D01*
X132262928Y-66780035D01*
X132239829Y-66771770D01*
X132217650Y-66761280D01*
X132196607Y-66748668D01*
X132176901Y-66734053D01*
X132158723Y-66717577D01*
X132142247Y-66699399D01*
X132127632Y-66679693D01*
X132115020Y-66658650D01*
X132104530Y-66636471D01*
X132096265Y-66613372D01*
X132090304Y-66589573D01*
X132086704Y-66565305D01*
X132085500Y-66540801D01*
X132085500Y-65640799D01*
X132086704Y-65616295D01*
X132090304Y-65592027D01*
X132096265Y-65568228D01*
X132104530Y-65545129D01*
X132115020Y-65522950D01*
X132127632Y-65501907D01*
X132142247Y-65482201D01*
X132158723Y-65464023D01*
X132176901Y-65447547D01*
X132196607Y-65432932D01*
X132217650Y-65420320D01*
X132239829Y-65409830D01*
X132262928Y-65401565D01*
X132286727Y-65395604D01*
X132310995Y-65392004D01*
X132335499Y-65390800D01*
X132985501Y-65390800D01*
X133010005Y-65392004D01*
X133010005Y-65392004D01*
G37*
D11*
X132660500Y-66090800D03*
D10*
G36*
X137888505Y-73222204D02*
G01*
X137912773Y-73225804D01*
X137936572Y-73231765D01*
X137959671Y-73240030D01*
X137981850Y-73250520D01*
X138002893Y-73263132D01*
X138022599Y-73277747D01*
X138040777Y-73294223D01*
X138057253Y-73312401D01*
X138071868Y-73332107D01*
X138084480Y-73353150D01*
X138094970Y-73375329D01*
X138103235Y-73398428D01*
X138109196Y-73422227D01*
X138112796Y-73446495D01*
X138114000Y-73470999D01*
X138114000Y-74121001D01*
X138112796Y-74145505D01*
X138109196Y-74169773D01*
X138103235Y-74193572D01*
X138094970Y-74216671D01*
X138084480Y-74238850D01*
X138071868Y-74259893D01*
X138057253Y-74279599D01*
X138040777Y-74297777D01*
X138022599Y-74314253D01*
X138002893Y-74328868D01*
X137981850Y-74341480D01*
X137959671Y-74351970D01*
X137936572Y-74360235D01*
X137912773Y-74366196D01*
X137888505Y-74369796D01*
X137864001Y-74371000D01*
X136963999Y-74371000D01*
X136939495Y-74369796D01*
X136915227Y-74366196D01*
X136891428Y-74360235D01*
X136868329Y-74351970D01*
X136846150Y-74341480D01*
X136825107Y-74328868D01*
X136805401Y-74314253D01*
X136787223Y-74297777D01*
X136770747Y-74279599D01*
X136756132Y-74259893D01*
X136743520Y-74238850D01*
X136733030Y-74216671D01*
X136724765Y-74193572D01*
X136718804Y-74169773D01*
X136715204Y-74145505D01*
X136714000Y-74121001D01*
X136714000Y-73470999D01*
X136715204Y-73446495D01*
X136718804Y-73422227D01*
X136724765Y-73398428D01*
X136733030Y-73375329D01*
X136743520Y-73353150D01*
X136756132Y-73332107D01*
X136770747Y-73312401D01*
X136787223Y-73294223D01*
X136805401Y-73277747D01*
X136825107Y-73263132D01*
X136846150Y-73250520D01*
X136868329Y-73240030D01*
X136891428Y-73231765D01*
X136915227Y-73225804D01*
X136939495Y-73222204D01*
X136963999Y-73221000D01*
X137864001Y-73221000D01*
X137888505Y-73222204D01*
X137888505Y-73222204D01*
G37*
D11*
X137414000Y-73796000D03*
D10*
G36*
X137888505Y-71172204D02*
G01*
X137912773Y-71175804D01*
X137936572Y-71181765D01*
X137959671Y-71190030D01*
X137981850Y-71200520D01*
X138002893Y-71213132D01*
X138022599Y-71227747D01*
X138040777Y-71244223D01*
X138057253Y-71262401D01*
X138071868Y-71282107D01*
X138084480Y-71303150D01*
X138094970Y-71325329D01*
X138103235Y-71348428D01*
X138109196Y-71372227D01*
X138112796Y-71396495D01*
X138114000Y-71420999D01*
X138114000Y-72071001D01*
X138112796Y-72095505D01*
X138109196Y-72119773D01*
X138103235Y-72143572D01*
X138094970Y-72166671D01*
X138084480Y-72188850D01*
X138071868Y-72209893D01*
X138057253Y-72229599D01*
X138040777Y-72247777D01*
X138022599Y-72264253D01*
X138002893Y-72278868D01*
X137981850Y-72291480D01*
X137959671Y-72301970D01*
X137936572Y-72310235D01*
X137912773Y-72316196D01*
X137888505Y-72319796D01*
X137864001Y-72321000D01*
X136963999Y-72321000D01*
X136939495Y-72319796D01*
X136915227Y-72316196D01*
X136891428Y-72310235D01*
X136868329Y-72301970D01*
X136846150Y-72291480D01*
X136825107Y-72278868D01*
X136805401Y-72264253D01*
X136787223Y-72247777D01*
X136770747Y-72229599D01*
X136756132Y-72209893D01*
X136743520Y-72188850D01*
X136733030Y-72166671D01*
X136724765Y-72143572D01*
X136718804Y-72119773D01*
X136715204Y-72095505D01*
X136714000Y-72071001D01*
X136714000Y-71420999D01*
X136715204Y-71396495D01*
X136718804Y-71372227D01*
X136724765Y-71348428D01*
X136733030Y-71325329D01*
X136743520Y-71303150D01*
X136756132Y-71282107D01*
X136770747Y-71262401D01*
X136787223Y-71244223D01*
X136805401Y-71227747D01*
X136825107Y-71213132D01*
X136846150Y-71200520D01*
X136868329Y-71190030D01*
X136891428Y-71181765D01*
X136915227Y-71175804D01*
X136939495Y-71172204D01*
X136963999Y-71171000D01*
X137864001Y-71171000D01*
X137888505Y-71172204D01*
X137888505Y-71172204D01*
G37*
D11*
X137414000Y-71746000D03*
D14*
X146304000Y-59055000D03*
D15*
X143764000Y-59055000D03*
X146304000Y-61595000D03*
X143764000Y-61595000D03*
X146304000Y-64135000D03*
X143764000Y-64135000D03*
D16*
X151485600Y-58191400D03*
D17*
X160466600Y-79599200D03*
X157466600Y-79599200D03*
X155966600Y-79599200D03*
D18*
X162066600Y-82659200D03*
X154366600Y-82659200D03*
X154366600Y-80449200D03*
X162066600Y-80449200D03*
D10*
G36*
X165623738Y-72702608D02*
G01*
X165656160Y-72707418D01*
X165687955Y-72715382D01*
X165718816Y-72726424D01*
X165748447Y-72740438D01*
X165776560Y-72757289D01*
X165802887Y-72776815D01*
X165827174Y-72798826D01*
X165849185Y-72823113D01*
X165868711Y-72849440D01*
X165885562Y-72877553D01*
X165899576Y-72907184D01*
X165910618Y-72938045D01*
X165918582Y-72969840D01*
X165923392Y-73002262D01*
X165925000Y-73035000D01*
X165925000Y-75767000D01*
X165923392Y-75799738D01*
X165918582Y-75832160D01*
X165910618Y-75863955D01*
X165899576Y-75894816D01*
X165885562Y-75924447D01*
X165868711Y-75952560D01*
X165849185Y-75978887D01*
X165827174Y-76003174D01*
X165802887Y-76025185D01*
X165776560Y-76044711D01*
X165748447Y-76061562D01*
X165718816Y-76075576D01*
X165687955Y-76086618D01*
X165656160Y-76094582D01*
X165623738Y-76099392D01*
X165591000Y-76101000D01*
X164259000Y-76101000D01*
X164226262Y-76099392D01*
X164193840Y-76094582D01*
X164162045Y-76086618D01*
X164131184Y-76075576D01*
X164101553Y-76061562D01*
X164073440Y-76044711D01*
X164047113Y-76025185D01*
X164022826Y-76003174D01*
X164000815Y-75978887D01*
X163981289Y-75952560D01*
X163964438Y-75924447D01*
X163950424Y-75894816D01*
X163939382Y-75863955D01*
X163931418Y-75832160D01*
X163926608Y-75799738D01*
X163925000Y-75767000D01*
X163925000Y-73035000D01*
X163926608Y-73002262D01*
X163931418Y-72969840D01*
X163939382Y-72938045D01*
X163950424Y-72907184D01*
X163964438Y-72877553D01*
X163981289Y-72849440D01*
X164000815Y-72823113D01*
X164022826Y-72798826D01*
X164047113Y-72776815D01*
X164073440Y-72757289D01*
X164101553Y-72740438D01*
X164131184Y-72726424D01*
X164162045Y-72715382D01*
X164193840Y-72707418D01*
X164226262Y-72702608D01*
X164259000Y-72701000D01*
X165591000Y-72701000D01*
X165623738Y-72702608D01*
X165623738Y-72702608D01*
G37*
D19*
X164925000Y-74401000D03*
D10*
G36*
X172323738Y-72702608D02*
G01*
X172356160Y-72707418D01*
X172387955Y-72715382D01*
X172418816Y-72726424D01*
X172448447Y-72740438D01*
X172476560Y-72757289D01*
X172502887Y-72776815D01*
X172527174Y-72798826D01*
X172549185Y-72823113D01*
X172568711Y-72849440D01*
X172585562Y-72877553D01*
X172599576Y-72907184D01*
X172610618Y-72938045D01*
X172618582Y-72969840D01*
X172623392Y-73002262D01*
X172625000Y-73035000D01*
X172625000Y-75767000D01*
X172623392Y-75799738D01*
X172618582Y-75832160D01*
X172610618Y-75863955D01*
X172599576Y-75894816D01*
X172585562Y-75924447D01*
X172568711Y-75952560D01*
X172549185Y-75978887D01*
X172527174Y-76003174D01*
X172502887Y-76025185D01*
X172476560Y-76044711D01*
X172448447Y-76061562D01*
X172418816Y-76075576D01*
X172387955Y-76086618D01*
X172356160Y-76094582D01*
X172323738Y-76099392D01*
X172291000Y-76101000D01*
X170959000Y-76101000D01*
X170926262Y-76099392D01*
X170893840Y-76094582D01*
X170862045Y-76086618D01*
X170831184Y-76075576D01*
X170801553Y-76061562D01*
X170773440Y-76044711D01*
X170747113Y-76025185D01*
X170722826Y-76003174D01*
X170700815Y-75978887D01*
X170681289Y-75952560D01*
X170664438Y-75924447D01*
X170650424Y-75894816D01*
X170639382Y-75863955D01*
X170631418Y-75832160D01*
X170626608Y-75799738D01*
X170625000Y-75767000D01*
X170625000Y-73035000D01*
X170626608Y-73002262D01*
X170631418Y-72969840D01*
X170639382Y-72938045D01*
X170650424Y-72907184D01*
X170664438Y-72877553D01*
X170681289Y-72849440D01*
X170700815Y-72823113D01*
X170722826Y-72798826D01*
X170747113Y-72776815D01*
X170773440Y-72757289D01*
X170801553Y-72740438D01*
X170831184Y-72726424D01*
X170862045Y-72715382D01*
X170893840Y-72707418D01*
X170926262Y-72702608D01*
X170959000Y-72701000D01*
X172291000Y-72701000D01*
X172323738Y-72702608D01*
X172323738Y-72702608D01*
G37*
D19*
X171625000Y-74401000D03*
D10*
G36*
X167686756Y-66652806D02*
G01*
X167723159Y-66658206D01*
X167758857Y-66667147D01*
X167793506Y-66679545D01*
X167826774Y-66695280D01*
X167858339Y-66714199D01*
X167887897Y-66736121D01*
X167915165Y-66760835D01*
X167939879Y-66788103D01*
X167961801Y-66817661D01*
X167980720Y-66849226D01*
X167996455Y-66882494D01*
X168008853Y-66917143D01*
X168017794Y-66952841D01*
X168023194Y-66989244D01*
X168025000Y-67026000D01*
X168025000Y-70276000D01*
X168023194Y-70312756D01*
X168017794Y-70349159D01*
X168008853Y-70384857D01*
X167996455Y-70419506D01*
X167980720Y-70452774D01*
X167961801Y-70484339D01*
X167939879Y-70513897D01*
X167915165Y-70541165D01*
X167887897Y-70565879D01*
X167858339Y-70587801D01*
X167826774Y-70606720D01*
X167793506Y-70622455D01*
X167758857Y-70634853D01*
X167723159Y-70643794D01*
X167686756Y-70649194D01*
X167650000Y-70651000D01*
X166900000Y-70651000D01*
X166863244Y-70649194D01*
X166826841Y-70643794D01*
X166791143Y-70634853D01*
X166756494Y-70622455D01*
X166723226Y-70606720D01*
X166691661Y-70587801D01*
X166662103Y-70565879D01*
X166634835Y-70541165D01*
X166610121Y-70513897D01*
X166588199Y-70484339D01*
X166569280Y-70452774D01*
X166553545Y-70419506D01*
X166541147Y-70384857D01*
X166532206Y-70349159D01*
X166526806Y-70312756D01*
X166525000Y-70276000D01*
X166525000Y-67026000D01*
X166526806Y-66989244D01*
X166532206Y-66952841D01*
X166541147Y-66917143D01*
X166553545Y-66882494D01*
X166569280Y-66849226D01*
X166588199Y-66817661D01*
X166610121Y-66788103D01*
X166634835Y-66760835D01*
X166662103Y-66736121D01*
X166691661Y-66714199D01*
X166723226Y-66695280D01*
X166756494Y-66679545D01*
X166791143Y-66667147D01*
X166826841Y-66658206D01*
X166863244Y-66652806D01*
X166900000Y-66651000D01*
X167650000Y-66651000D01*
X167686756Y-66652806D01*
X167686756Y-66652806D01*
G37*
D20*
X167275000Y-68651000D03*
D10*
G36*
X169686756Y-66652806D02*
G01*
X169723159Y-66658206D01*
X169758857Y-66667147D01*
X169793506Y-66679545D01*
X169826774Y-66695280D01*
X169858339Y-66714199D01*
X169887897Y-66736121D01*
X169915165Y-66760835D01*
X169939879Y-66788103D01*
X169961801Y-66817661D01*
X169980720Y-66849226D01*
X169996455Y-66882494D01*
X170008853Y-66917143D01*
X170017794Y-66952841D01*
X170023194Y-66989244D01*
X170025000Y-67026000D01*
X170025000Y-70276000D01*
X170023194Y-70312756D01*
X170017794Y-70349159D01*
X170008853Y-70384857D01*
X169996455Y-70419506D01*
X169980720Y-70452774D01*
X169961801Y-70484339D01*
X169939879Y-70513897D01*
X169915165Y-70541165D01*
X169887897Y-70565879D01*
X169858339Y-70587801D01*
X169826774Y-70606720D01*
X169793506Y-70622455D01*
X169758857Y-70634853D01*
X169723159Y-70643794D01*
X169686756Y-70649194D01*
X169650000Y-70651000D01*
X168900000Y-70651000D01*
X168863244Y-70649194D01*
X168826841Y-70643794D01*
X168791143Y-70634853D01*
X168756494Y-70622455D01*
X168723226Y-70606720D01*
X168691661Y-70587801D01*
X168662103Y-70565879D01*
X168634835Y-70541165D01*
X168610121Y-70513897D01*
X168588199Y-70484339D01*
X168569280Y-70452774D01*
X168553545Y-70419506D01*
X168541147Y-70384857D01*
X168532206Y-70349159D01*
X168526806Y-70312756D01*
X168525000Y-70276000D01*
X168525000Y-67026000D01*
X168526806Y-66989244D01*
X168532206Y-66952841D01*
X168541147Y-66917143D01*
X168553545Y-66882494D01*
X168569280Y-66849226D01*
X168588199Y-66817661D01*
X168610121Y-66788103D01*
X168634835Y-66760835D01*
X168662103Y-66736121D01*
X168691661Y-66714199D01*
X168723226Y-66695280D01*
X168756494Y-66679545D01*
X168791143Y-66667147D01*
X168826841Y-66658206D01*
X168863244Y-66652806D01*
X168900000Y-66651000D01*
X169650000Y-66651000D01*
X169686756Y-66652806D01*
X169686756Y-66652806D01*
G37*
D20*
X169275000Y-68651000D03*
D21*
X135382000Y-73787000D03*
X129667000Y-71882000D03*
X135382000Y-66294000D03*
X135382000Y-76454000D03*
X135509000Y-64135000D03*
X135509000Y-59944000D03*
D22*
X166838000Y-69088000D02*
X167275000Y-68651000D01*
D23*
X120050000Y-80863000D02*
X120050000Y-81061000D01*
X120050000Y-81061000D02*
X120777000Y-81788000D01*
X129031000Y-81788000D02*
X129067000Y-81752000D01*
X120777000Y-81788000D02*
X129031000Y-81788000D01*
X120050000Y-75783000D02*
X119162000Y-75783000D01*
X119162000Y-75783000D02*
X118237000Y-76708000D01*
X118237000Y-76708000D02*
X118237000Y-80010000D01*
X119090000Y-80863000D02*
X120050000Y-80863000D01*
X118237000Y-80010000D02*
X119090000Y-80863000D01*
X119796000Y-70322000D02*
X119416000Y-70322000D01*
X119416000Y-70322000D02*
X118491000Y-71247000D01*
X118491000Y-71247000D02*
X118491000Y-75311000D01*
X118963000Y-75783000D02*
X120050000Y-75783000D01*
X118491000Y-75311000D02*
X118963000Y-75783000D01*
X129067000Y-81752000D02*
X129067000Y-82585000D01*
X129067000Y-82585000D02*
X129540000Y-83058000D01*
X129540000Y-83058000D02*
X134747000Y-83058000D01*
X134747000Y-83058000D02*
X135890000Y-81915000D01*
D22*
X123882000Y-62048000D02*
X123882000Y-61919000D01*
X169275000Y-68651000D02*
X169275000Y-76089000D01*
X169275000Y-76089000D02*
X168021000Y-77343000D01*
X168021000Y-77343000D02*
X158242000Y-77343000D01*
X157466600Y-78118400D02*
X157466600Y-79799200D01*
X158242000Y-77343000D02*
X157466600Y-78118400D01*
X128270000Y-64063000D02*
X128579000Y-64063000D01*
X120142000Y-64008000D02*
X120396000Y-64008000D01*
X128270000Y-64063000D02*
X128088000Y-64063000D01*
X123790000Y-78903000D02*
X124044000Y-78903000D01*
X123790000Y-73823000D02*
X123353000Y-73823000D01*
D23*
X124143500Y-78549500D02*
X123790000Y-78903000D01*
X123790000Y-73823000D02*
X124178500Y-73823000D01*
X126818500Y-66294000D02*
X126818500Y-65858500D01*
X129168000Y-76454000D02*
X135001000Y-76454000D01*
X130547000Y-66294000D02*
X130674000Y-66167000D01*
X126818500Y-66294000D02*
X130547000Y-66294000D01*
X130674000Y-65922000D02*
X131635500Y-64960500D01*
X130674000Y-66167000D02*
X130674000Y-65922000D01*
X131635500Y-64960500D02*
X133159500Y-64960500D01*
X128778000Y-70993000D02*
X129667000Y-71882000D01*
X128143000Y-70358000D02*
X128778000Y-70993000D01*
X126873000Y-71628000D02*
X128143000Y-70358000D01*
X120777000Y-71628000D02*
X126873000Y-71628000D01*
X119796000Y-70322000D02*
X119796000Y-70393000D01*
X119796000Y-70393000D02*
X120777000Y-71628000D01*
X133159500Y-64960500D02*
X135191500Y-64960500D01*
X123882000Y-62046000D02*
X123882000Y-62048000D01*
X134874000Y-59944000D02*
X133985000Y-62103000D01*
X135509000Y-59944000D02*
X134874000Y-59944000D01*
X133985000Y-62103000D02*
X132010000Y-62103000D01*
X132010000Y-62103000D02*
X130803500Y-60896500D01*
X130803500Y-60896500D02*
X125031500Y-60896500D01*
X125031500Y-60896500D02*
X123882000Y-62046000D01*
D22*
X123790000Y-73823000D02*
X124487000Y-73823000D01*
D23*
X120142000Y-64008000D02*
X120142000Y-64389000D01*
X120142000Y-64389000D02*
X120586500Y-64833500D01*
X120777000Y-65024000D02*
X120586500Y-64833500D01*
X122047000Y-66294000D02*
X120586500Y-64833500D01*
X124768500Y-66294000D02*
X122047000Y-66294000D01*
X132807000Y-79792000D02*
X132807000Y-79340000D01*
X123536000Y-67526500D02*
X124768500Y-66294000D01*
X123536000Y-68362000D02*
X123536000Y-67526500D01*
X127118000Y-76454000D02*
X127118000Y-77334000D01*
X127118000Y-77334000D02*
X127762000Y-77978000D01*
X127762000Y-77978000D02*
X132080000Y-77978000D01*
X132807000Y-78705000D02*
X132807000Y-79792000D01*
X123790000Y-73823000D02*
X124877000Y-73823000D01*
X127118000Y-76064000D02*
X127118000Y-76454000D01*
X124877000Y-73823000D02*
X127118000Y-76064000D01*
X123790000Y-78903000D02*
X123790000Y-78648000D01*
X125984000Y-76454000D02*
X127118000Y-76454000D01*
X123790000Y-78648000D02*
X125984000Y-76454000D01*
X126564000Y-64063000D02*
X128270000Y-64063000D01*
X124768500Y-65858500D02*
X126564000Y-64063000D01*
X128270000Y-64063000D02*
X128570000Y-64063000D01*
X128270000Y-64063000D02*
X128270000Y-64262000D01*
D22*
X135699500Y-68420000D02*
X135699500Y-69659500D01*
D23*
X132461000Y-78359000D02*
X132807000Y-78705000D01*
X132080000Y-77978000D02*
X132461000Y-78359000D01*
D22*
X135699500Y-69659500D02*
X135699500Y-69913500D01*
D24*
X144018000Y-59055000D02*
X144018000Y-59182000D01*
D22*
X144018000Y-59055000D02*
X144018000Y-59309000D01*
D23*
X144018000Y-59055000D02*
X144145000Y-59055000D01*
X131883000Y-68398000D02*
X133041000Y-68398000D01*
X133532000Y-68398000D02*
X133676000Y-68398000D01*
X133041000Y-68398000D02*
X133532000Y-68398000D01*
X133063000Y-68420000D02*
X133041000Y-68398000D01*
X135699500Y-68420000D02*
X133063000Y-68420000D01*
D22*
X155966600Y-78496600D02*
X155966600Y-79799200D01*
X155067000Y-77597000D02*
X155966600Y-78496600D01*
X138938000Y-78359000D02*
X139700000Y-77597000D01*
X144780000Y-77597000D02*
X144780000Y-67310000D01*
X144780000Y-77597000D02*
X155067000Y-77597000D01*
X132461000Y-78359000D02*
X136652000Y-78359000D01*
D23*
X132660500Y-67965500D02*
X132010000Y-68616000D01*
X132660500Y-66090800D02*
X132660500Y-67965500D01*
X131314300Y-67437000D02*
X132660500Y-66090800D01*
X124768500Y-66294000D02*
X125911500Y-67437000D01*
X125911500Y-67437000D02*
X131314300Y-67437000D01*
D22*
X137414000Y-71746000D02*
X137414000Y-71628000D01*
X136652000Y-78359000D02*
X138938000Y-78359000D01*
X139700000Y-77597000D02*
X144780000Y-77597000D01*
D23*
X137414000Y-71746000D02*
X137042000Y-71746000D01*
D22*
X135953500Y-70167500D02*
X135699500Y-69913500D01*
X137414000Y-71628000D02*
X135953500Y-70167500D01*
D23*
X135953500Y-70167500D02*
X135572500Y-70167500D01*
X135572500Y-70167500D02*
X135572500Y-72072500D01*
X135572500Y-72072500D02*
X134366000Y-73279000D01*
X134366000Y-73279000D02*
X134366000Y-75057000D01*
X134366000Y-75057000D02*
X134874000Y-75565000D01*
X137668000Y-75565000D02*
X139700000Y-77597000D01*
X134874000Y-75565000D02*
X137668000Y-75565000D01*
X143764000Y-59055000D02*
X143764000Y-59309000D01*
X143764000Y-59309000D02*
X145034000Y-60579000D01*
X145034000Y-60579000D02*
X145034000Y-67056000D01*
D22*
X144780000Y-67310000D02*
X145034000Y-67056000D01*
D24*
X128270000Y-62103000D02*
X127381000Y-62103000D01*
X123882000Y-64008000D02*
X124206000Y-64008000D01*
X127190500Y-62103000D02*
X128270000Y-62103000D01*
X125285500Y-64008000D02*
X127190500Y-62103000D01*
X123882000Y-64008000D02*
X125285500Y-64008000D01*
X132010000Y-64063000D02*
X132533000Y-64063000D01*
X132406000Y-64063000D02*
X132010000Y-64063000D01*
X136969500Y-62166500D02*
X136779000Y-62357000D01*
X136969500Y-61120000D02*
X136969500Y-62166500D01*
X136969500Y-61755000D02*
X136969500Y-62801500D01*
X136969500Y-62801500D02*
X136525000Y-63246000D01*
X132772000Y-63246000D02*
X132010000Y-64008000D01*
X136525000Y-63246000D02*
X132772000Y-63246000D01*
X120142000Y-62048000D02*
X119435000Y-62048000D01*
X119435000Y-62048000D02*
X118237000Y-63246000D01*
X118237000Y-66803000D02*
X119796000Y-68362000D01*
X118237000Y-63246000D02*
X118237000Y-66803000D01*
X123536000Y-70322000D02*
X124623000Y-70322000D01*
X126547000Y-68398000D02*
X128143000Y-68398000D01*
X124623000Y-70322000D02*
X126547000Y-68398000D01*
X142869490Y-57790510D02*
X142367000Y-58293000D01*
X145166510Y-57790510D02*
X142869490Y-57790510D01*
X146431000Y-59055000D02*
X145166510Y-57790510D01*
X146558000Y-59055000D02*
X146431000Y-59055000D01*
X142367000Y-62611000D02*
X142367000Y-62230000D01*
X138239500Y-66738500D02*
X142367000Y-62611000D01*
X138239500Y-69055000D02*
X138239500Y-66738500D01*
X142367000Y-58293000D02*
X142367000Y-62230000D01*
X142367000Y-62230000D02*
X142367000Y-62484000D01*
X137033000Y-66929000D02*
X137033000Y-68707000D01*
X140843000Y-63119000D02*
X137033000Y-66929000D01*
X140843000Y-58547000D02*
X140843000Y-63119000D01*
X146304000Y-61595000D02*
X147193000Y-61595000D01*
X147193000Y-61595000D02*
X147701000Y-61087000D01*
X147701000Y-61087000D02*
X147701000Y-57785000D01*
X147701000Y-57785000D02*
X147256500Y-57340500D01*
X147256500Y-57340500D02*
X141668500Y-57340500D01*
X141668500Y-57340500D02*
X140843000Y-58547000D01*
X143510000Y-62230000D02*
X143510000Y-61595000D01*
X141986000Y-63754000D02*
X143510000Y-62230000D01*
X141986000Y-66074000D02*
X141986000Y-63754000D01*
X139509500Y-69055000D02*
X139509500Y-68550500D01*
X139509500Y-68550500D02*
X141986000Y-66074000D01*
X147637500Y-56705500D02*
X147701000Y-56769000D01*
X135699500Y-61023500D02*
X135699500Y-61755000D01*
X140589000Y-56134000D02*
X135699500Y-61023500D01*
X147701000Y-56769000D02*
X147066000Y-56134000D01*
X147066000Y-56134000D02*
X140589000Y-56134000D01*
X148082000Y-57150000D02*
X147701000Y-56769000D01*
X148336000Y-57404000D02*
X148082000Y-57150000D01*
X148336000Y-62484000D02*
X148336000Y-57404000D01*
X146304000Y-64135000D02*
X146685000Y-64135000D01*
X146685000Y-64135000D02*
X148336000Y-62484000D01*
X121158000Y-72898000D02*
X120050000Y-73823000D01*
X129921000Y-72898000D02*
X121158000Y-72898000D01*
X131883000Y-70358000D02*
X131883000Y-70555000D01*
X131883000Y-70555000D02*
X129921000Y-72898000D01*
X123790000Y-75783000D02*
X123353000Y-75783000D01*
X119923000Y-79213000D02*
X119923000Y-79284000D01*
X123353000Y-75783000D02*
X119923000Y-79213000D01*
X123663000Y-81244000D02*
X125385000Y-81244000D01*
X127254000Y-79375000D02*
X129032000Y-79375000D01*
X125385000Y-81244000D02*
X127254000Y-79375000D01*
D25*
G36*
X149462057Y-55988252D02*
G01*
X151485600Y-58011795D01*
X153509143Y-55988252D01*
X153247749Y-55592645D01*
X163033596Y-55592645D01*
X163033595Y-57250251D01*
X163032739Y-57258943D01*
X163036156Y-57293641D01*
X163046277Y-57327006D01*
X163062713Y-57357754D01*
X163084832Y-57384706D01*
X163108341Y-57403999D01*
X163111784Y-57406825D01*
X163142532Y-57423261D01*
X163175897Y-57433382D01*
X163210595Y-57436799D01*
X163219287Y-57435943D01*
X164133270Y-57435943D01*
X164133269Y-58514258D01*
X164132413Y-58522950D01*
X164135830Y-58557648D01*
X164145951Y-58591013D01*
X164162387Y-58621761D01*
X164184506Y-58648713D01*
X164211226Y-58670642D01*
X164211458Y-58670832D01*
X164242206Y-58687268D01*
X164275571Y-58697389D01*
X164310269Y-58700806D01*
X164318961Y-58699950D01*
X165344103Y-58699950D01*
X165344102Y-62726749D01*
X165344103Y-62726759D01*
X165344102Y-66350261D01*
X165343247Y-66359245D01*
X165344983Y-66376298D01*
X165346663Y-66393358D01*
X165346748Y-66393639D01*
X165346778Y-66393931D01*
X165351792Y-66410266D01*
X165356784Y-66426723D01*
X165356923Y-66426983D01*
X165357009Y-66427263D01*
X165365114Y-66442307D01*
X165373220Y-66457471D01*
X165373407Y-66457699D01*
X165373546Y-66457957D01*
X165384484Y-66471196D01*
X165395339Y-66484423D01*
X165395565Y-66484609D01*
X165395753Y-66484836D01*
X165408953Y-66495596D01*
X165422291Y-66506543D01*
X165422555Y-66506684D01*
X165422778Y-66506866D01*
X165437645Y-66514750D01*
X165453039Y-66522979D01*
X165453325Y-66523066D01*
X165453580Y-66523201D01*
X165469826Y-66528071D01*
X165486404Y-66533100D01*
X165486697Y-66533129D01*
X165486978Y-66533213D01*
X165503900Y-66534823D01*
X165521102Y-66536517D01*
X165530090Y-66535632D01*
X165898410Y-66534422D01*
X165886928Y-66651000D01*
X165890000Y-68365250D01*
X166048750Y-68524000D01*
X167148000Y-68524000D01*
X167148000Y-66174750D01*
X166989250Y-66016000D01*
X166794162Y-66014709D01*
X166794162Y-64953864D01*
X168309660Y-64953864D01*
X168318352Y-64954720D01*
X168327044Y-64953864D01*
X168353050Y-64951303D01*
X168386415Y-64941182D01*
X168417163Y-64924746D01*
X168444115Y-64902627D01*
X168466234Y-64875675D01*
X168482670Y-64844927D01*
X168492791Y-64811562D01*
X168496208Y-64776864D01*
X168495352Y-64768172D01*
X168495352Y-63426308D01*
X171150983Y-63426308D01*
X171150982Y-64768172D01*
X171150126Y-64776864D01*
X171153543Y-64811562D01*
X171163664Y-64844927D01*
X171180100Y-64875675D01*
X171202219Y-64902627D01*
X171229171Y-64924746D01*
X171259919Y-64941182D01*
X171293284Y-64951303D01*
X171327982Y-64954720D01*
X171336674Y-64953864D01*
X172695593Y-64953864D01*
X172695592Y-70664411D01*
X172694736Y-70673103D01*
X172698153Y-70707801D01*
X172708274Y-70741166D01*
X172724710Y-70771914D01*
X172746829Y-70798866D01*
X172773781Y-70820985D01*
X172804529Y-70837421D01*
X172837894Y-70847542D01*
X172872592Y-70850959D01*
X172881284Y-70850103D01*
X173930143Y-70850103D01*
X173930142Y-78132827D01*
X172881284Y-78132827D01*
X172872592Y-78131971D01*
X172863900Y-78132827D01*
X172837894Y-78135388D01*
X172804529Y-78145509D01*
X172773781Y-78161945D01*
X172746829Y-78184064D01*
X172724710Y-78211016D01*
X172708274Y-78241764D01*
X172698153Y-78275129D01*
X172694736Y-78309827D01*
X172695593Y-78318529D01*
X172695592Y-79521374D01*
X171402834Y-79521374D01*
X171394142Y-79520518D01*
X171385450Y-79521374D01*
X171359444Y-79523935D01*
X171326079Y-79534056D01*
X171295331Y-79550492D01*
X171268379Y-79572611D01*
X171246260Y-79599563D01*
X171229824Y-79630311D01*
X171219703Y-79663676D01*
X171216286Y-79698374D01*
X171217143Y-79707076D01*
X171217142Y-80951261D01*
X169783814Y-80951261D01*
X169775122Y-80950405D01*
X169766430Y-80951261D01*
X169740424Y-80953822D01*
X169707059Y-80963943D01*
X169676311Y-80980379D01*
X169649359Y-81002498D01*
X169627240Y-81029450D01*
X169610804Y-81060198D01*
X169600683Y-81093563D01*
X169597266Y-81128261D01*
X169598123Y-81136963D01*
X169598122Y-83197292D01*
X169598123Y-83197302D01*
X169598122Y-85685293D01*
X165387158Y-85685293D01*
X165387158Y-84980797D01*
X165388014Y-84972106D01*
X165384597Y-84937408D01*
X165374476Y-84904043D01*
X165358040Y-84873295D01*
X165335921Y-84846343D01*
X165308969Y-84824224D01*
X165278221Y-84807788D01*
X165244856Y-84797667D01*
X165218850Y-84795106D01*
X165210158Y-84794250D01*
X165201466Y-84795106D01*
X164092917Y-84795106D01*
X164092917Y-83287164D01*
X164093773Y-83278472D01*
X164090356Y-83243774D01*
X164080235Y-83210409D01*
X164063799Y-83179661D01*
X164041680Y-83152709D01*
X164014728Y-83130590D01*
X163983980Y-83114154D01*
X163950615Y-83104033D01*
X163924609Y-83101472D01*
X163915917Y-83100616D01*
X163907225Y-83101472D01*
X163141018Y-83101472D01*
X163145182Y-83059200D01*
X163145182Y-82259200D01*
X163138868Y-82195097D01*
X163120170Y-82133457D01*
X163089806Y-82076650D01*
X163048943Y-82026857D01*
X162999150Y-81985994D01*
X162942343Y-81955630D01*
X162880703Y-81936932D01*
X162816600Y-81930618D01*
X161316600Y-81930618D01*
X161252497Y-81936932D01*
X161190857Y-81955630D01*
X161134050Y-81985994D01*
X161084257Y-82026857D01*
X161043394Y-82076650D01*
X161013030Y-82133457D01*
X160994332Y-82195097D01*
X160988018Y-82259200D01*
X160988018Y-83059200D01*
X160994332Y-83123303D01*
X161013030Y-83184943D01*
X161043394Y-83241750D01*
X161084257Y-83291543D01*
X161134050Y-83332406D01*
X161190857Y-83362770D01*
X161252497Y-83381468D01*
X161316600Y-83387782D01*
X162099878Y-83387782D01*
X162099877Y-85685293D01*
X157868531Y-85685293D01*
X157868531Y-84980797D01*
X157869387Y-84972106D01*
X157865970Y-84937408D01*
X157855849Y-84904043D01*
X157839413Y-84873295D01*
X157817294Y-84846343D01*
X157790342Y-84824224D01*
X157759594Y-84807788D01*
X157726229Y-84797667D01*
X157700223Y-84795106D01*
X157691531Y-84794250D01*
X157682839Y-84795106D01*
X156591047Y-84795106D01*
X156591047Y-83287164D01*
X156591903Y-83278472D01*
X156588486Y-83243774D01*
X156578365Y-83210409D01*
X156561929Y-83179661D01*
X156539810Y-83152709D01*
X156512858Y-83130590D01*
X156482110Y-83114154D01*
X156448745Y-83104033D01*
X156422739Y-83101472D01*
X156414047Y-83100616D01*
X156405355Y-83101472D01*
X155441018Y-83101472D01*
X155445182Y-83059200D01*
X155445182Y-82259200D01*
X155438868Y-82195097D01*
X155420170Y-82133457D01*
X155389806Y-82076650D01*
X155348943Y-82026857D01*
X155299150Y-81985994D01*
X155242343Y-81955630D01*
X155180703Y-81936932D01*
X155116600Y-81930618D01*
X153616600Y-81930618D01*
X153552497Y-81936932D01*
X153490857Y-81955630D01*
X153434050Y-81985994D01*
X153384257Y-82026857D01*
X153343394Y-82076650D01*
X153313030Y-82133457D01*
X153294332Y-82195097D01*
X153288018Y-82259200D01*
X153288018Y-83059200D01*
X153292182Y-83101472D01*
X147569147Y-83101472D01*
X147560455Y-83100616D01*
X147551763Y-83101472D01*
X147525757Y-83104033D01*
X147492392Y-83114154D01*
X147461644Y-83130590D01*
X147434692Y-83152709D01*
X147412573Y-83179661D01*
X147396137Y-83210409D01*
X147386016Y-83243774D01*
X147382599Y-83278472D01*
X147383456Y-83287174D01*
X147383455Y-84484510D01*
X147383456Y-84484520D01*
X147383455Y-85685293D01*
X143700115Y-85685293D01*
X143700115Y-84980797D01*
X143700971Y-84972106D01*
X143697554Y-84937408D01*
X143687433Y-84904043D01*
X143670997Y-84873295D01*
X143648878Y-84846343D01*
X143621926Y-84824224D01*
X143591178Y-84807788D01*
X143557813Y-84797667D01*
X143531807Y-84795106D01*
X143523115Y-84794250D01*
X143514423Y-84795106D01*
X142363485Y-84795106D01*
X142363485Y-83287164D01*
X142364341Y-83278472D01*
X142360924Y-83243774D01*
X142350803Y-83210409D01*
X142334367Y-83179661D01*
X142312248Y-83152709D01*
X142285296Y-83130590D01*
X142254548Y-83114154D01*
X142221183Y-83104033D01*
X142195177Y-83101472D01*
X142186485Y-83100616D01*
X142177793Y-83101472D01*
X140407837Y-83101472D01*
X140399145Y-83100616D01*
X140390453Y-83101472D01*
X140364447Y-83104033D01*
X140331082Y-83114154D01*
X140300334Y-83130590D01*
X140273382Y-83152709D01*
X140251263Y-83179661D01*
X140234827Y-83210409D01*
X140224706Y-83243774D01*
X140221289Y-83278472D01*
X140222146Y-83287174D01*
X140222145Y-84795106D01*
X139051467Y-84795106D01*
X139042775Y-84794250D01*
X139034083Y-84795106D01*
X139008077Y-84797667D01*
X138974712Y-84807788D01*
X138943964Y-84824224D01*
X138917012Y-84846343D01*
X138894893Y-84873295D01*
X138878457Y-84904043D01*
X138868336Y-84937408D01*
X138864919Y-84972106D01*
X138865776Y-84980808D01*
X138865775Y-85685293D01*
X135522825Y-85685293D01*
X135522825Y-83843724D01*
X135523681Y-83835032D01*
X135520264Y-83800334D01*
X135510143Y-83766969D01*
X135493707Y-83736221D01*
X135471588Y-83709269D01*
X135444636Y-83687150D01*
X135413888Y-83670714D01*
X135380523Y-83660593D01*
X135354517Y-83658032D01*
X135345825Y-83657176D01*
X135337133Y-83658032D01*
X134887852Y-83658032D01*
X134899397Y-81903136D01*
X134899400Y-81902300D01*
X134899400Y-79036000D01*
X138904755Y-79036000D01*
X138938000Y-79039274D01*
X138971245Y-79036000D01*
X138971252Y-79036000D01*
X139070715Y-79026204D01*
X139198330Y-78987492D01*
X139315941Y-78924628D01*
X139419027Y-78840027D01*
X139440226Y-78814196D01*
X139980423Y-78274000D01*
X144746748Y-78274000D01*
X144780000Y-78277275D01*
X144813252Y-78274000D01*
X154786578Y-78274000D01*
X155288018Y-78775441D01*
X155288018Y-79770044D01*
X155242343Y-79745630D01*
X155180703Y-79726932D01*
X155116600Y-79720618D01*
X153616600Y-79720618D01*
X153552497Y-79726932D01*
X153490857Y-79745630D01*
X153434050Y-79775994D01*
X153384257Y-79816857D01*
X153343394Y-79866650D01*
X153313030Y-79923457D01*
X153294332Y-79985097D01*
X153288018Y-80049200D01*
X153288018Y-80849200D01*
X153294332Y-80913303D01*
X153313030Y-80974943D01*
X153343394Y-81031750D01*
X153384257Y-81081543D01*
X153434050Y-81122406D01*
X153490857Y-81152770D01*
X153552497Y-81171468D01*
X153616600Y-81177782D01*
X155116600Y-81177782D01*
X155180703Y-81171468D01*
X155242343Y-81152770D01*
X155299150Y-81122406D01*
X155348943Y-81081543D01*
X155389806Y-81031750D01*
X155420170Y-80974943D01*
X155438868Y-80913303D01*
X155442454Y-80876898D01*
X155490857Y-80902770D01*
X155552497Y-80921468D01*
X155616600Y-80927782D01*
X156316600Y-80927782D01*
X156380703Y-80921468D01*
X156442343Y-80902770D01*
X156499150Y-80872406D01*
X156548943Y-80831543D01*
X156589806Y-80781750D01*
X156620170Y-80724943D01*
X156638868Y-80663303D01*
X156645182Y-80599200D01*
X156645182Y-78599200D01*
X156643600Y-78583139D01*
X156643600Y-78529852D01*
X156646875Y-78496600D01*
X156633804Y-78363885D01*
X156595092Y-78236270D01*
X156532228Y-78118659D01*
X156532016Y-78118400D01*
X156786326Y-78118400D01*
X156789600Y-78151645D01*
X156789600Y-78583136D01*
X156788018Y-78599200D01*
X156788018Y-80599200D01*
X156794332Y-80663303D01*
X156813030Y-80724943D01*
X156843394Y-80781750D01*
X156884257Y-80831543D01*
X156934050Y-80872406D01*
X156990857Y-80902770D01*
X157052497Y-80921468D01*
X157116600Y-80927782D01*
X157816600Y-80927782D01*
X157880703Y-80921468D01*
X157942343Y-80902770D01*
X157999150Y-80872406D01*
X158048943Y-80831543D01*
X158089806Y-80781750D01*
X158120170Y-80724943D01*
X158138868Y-80663303D01*
X158145182Y-80599200D01*
X158145182Y-78599200D01*
X159788018Y-78599200D01*
X159788018Y-80599200D01*
X159794332Y-80663303D01*
X159813030Y-80724943D01*
X159843394Y-80781750D01*
X159884257Y-80831543D01*
X159934050Y-80872406D01*
X159990857Y-80902770D01*
X160052497Y-80921468D01*
X160116600Y-80927782D01*
X160816600Y-80927782D01*
X160880703Y-80921468D01*
X160942343Y-80902770D01*
X160990746Y-80876898D01*
X160994332Y-80913303D01*
X161013030Y-80974943D01*
X161043394Y-81031750D01*
X161084257Y-81081543D01*
X161134050Y-81122406D01*
X161190857Y-81152770D01*
X161252497Y-81171468D01*
X161316600Y-81177782D01*
X162816600Y-81177782D01*
X162880703Y-81171468D01*
X162942343Y-81152770D01*
X162999150Y-81122406D01*
X163048943Y-81081543D01*
X163089806Y-81031750D01*
X163120170Y-80974943D01*
X163138868Y-80913303D01*
X163145182Y-80849200D01*
X163145182Y-80049200D01*
X163138868Y-79985097D01*
X163120170Y-79923457D01*
X163089806Y-79866650D01*
X163048943Y-79816857D01*
X162999150Y-79775994D01*
X162942343Y-79745630D01*
X162880703Y-79726932D01*
X162816600Y-79720618D01*
X161316600Y-79720618D01*
X161252497Y-79726932D01*
X161190857Y-79745630D01*
X161145182Y-79770044D01*
X161145182Y-78599200D01*
X161138868Y-78535097D01*
X161120170Y-78473457D01*
X161089806Y-78416650D01*
X161048943Y-78366857D01*
X160999150Y-78325994D01*
X160942343Y-78295630D01*
X160880703Y-78276932D01*
X160816600Y-78270618D01*
X160116600Y-78270618D01*
X160052497Y-78276932D01*
X159990857Y-78295630D01*
X159934050Y-78325994D01*
X159884257Y-78366857D01*
X159843394Y-78416650D01*
X159813030Y-78473457D01*
X159794332Y-78535097D01*
X159788018Y-78599200D01*
X158145182Y-78599200D01*
X158143600Y-78583139D01*
X158143600Y-78398822D01*
X158522422Y-78020000D01*
X167987755Y-78020000D01*
X168021000Y-78023274D01*
X168054245Y-78020000D01*
X168054252Y-78020000D01*
X168153715Y-78010204D01*
X168281330Y-77971492D01*
X168398941Y-77908628D01*
X168502027Y-77824027D01*
X168523226Y-77798196D01*
X169730201Y-76591222D01*
X169756027Y-76570027D01*
X169840628Y-76466941D01*
X169903492Y-76349330D01*
X169942204Y-76221715D01*
X169952000Y-76122252D01*
X169955275Y-76089000D01*
X169952000Y-76055748D01*
X169952000Y-73035000D01*
X170296418Y-73035000D01*
X170296418Y-75767000D01*
X170309149Y-75896263D01*
X170346854Y-76020559D01*
X170408083Y-76135111D01*
X170490484Y-76235516D01*
X170590889Y-76317917D01*
X170705441Y-76379146D01*
X170829737Y-76416851D01*
X170959000Y-76429582D01*
X172291000Y-76429582D01*
X172420263Y-76416851D01*
X172544559Y-76379146D01*
X172659111Y-76317917D01*
X172759516Y-76235516D01*
X172841917Y-76135111D01*
X172903146Y-76020559D01*
X172940851Y-75896263D01*
X172953582Y-75767000D01*
X172953582Y-73035000D01*
X172940851Y-72905737D01*
X172903146Y-72781441D01*
X172841917Y-72666889D01*
X172759516Y-72566484D01*
X172659111Y-72484083D01*
X172544559Y-72422854D01*
X172420263Y-72385149D01*
X172291000Y-72372418D01*
X170959000Y-72372418D01*
X170829737Y-72385149D01*
X170705441Y-72422854D01*
X170590889Y-72484083D01*
X170490484Y-72566484D01*
X170408083Y-72666889D01*
X170346854Y-72781441D01*
X170309149Y-72905737D01*
X170296418Y-73035000D01*
X169952000Y-73035000D01*
X169952000Y-70908519D01*
X170040889Y-70861007D01*
X170147508Y-70773508D01*
X170235007Y-70666889D01*
X170300025Y-70545249D01*
X170340063Y-70413262D01*
X170353582Y-70276000D01*
X170353582Y-67026000D01*
X170340063Y-66888738D01*
X170300025Y-66756751D01*
X170235007Y-66635111D01*
X170147508Y-66528492D01*
X170040889Y-66440993D01*
X169919249Y-66375975D01*
X169787262Y-66335937D01*
X169650000Y-66322418D01*
X168900000Y-66322418D01*
X168762738Y-66335937D01*
X168630751Y-66375975D01*
X168605289Y-66389585D01*
X168555537Y-66296506D01*
X168476185Y-66199815D01*
X168379494Y-66120463D01*
X168269180Y-66061498D01*
X168149482Y-66025188D01*
X168025000Y-66012928D01*
X167560750Y-66016000D01*
X167402000Y-66174750D01*
X167402000Y-68524000D01*
X167422000Y-68524000D01*
X167422000Y-68778000D01*
X167402000Y-68778000D01*
X167402000Y-71127250D01*
X167560750Y-71286000D01*
X168025000Y-71289072D01*
X168149482Y-71276812D01*
X168269180Y-71240502D01*
X168379494Y-71181537D01*
X168476185Y-71102185D01*
X168555537Y-71005494D01*
X168598000Y-70926052D01*
X168598001Y-75808576D01*
X167740578Y-76666000D01*
X158275241Y-76666000D01*
X158241999Y-76662726D01*
X158208757Y-76666000D01*
X158208748Y-76666000D01*
X158109285Y-76675796D01*
X157981670Y-76714508D01*
X157864059Y-76777372D01*
X157760973Y-76861973D01*
X157739776Y-76887802D01*
X157011400Y-77616178D01*
X156985573Y-77637374D01*
X156900972Y-77740460D01*
X156838108Y-77858071D01*
X156799396Y-77985686D01*
X156789600Y-78085149D01*
X156789600Y-78085155D01*
X156786326Y-78118400D01*
X156532016Y-78118400D01*
X156468824Y-78041401D01*
X156468818Y-78041395D01*
X156447626Y-78015573D01*
X156421805Y-77994382D01*
X155569226Y-77141804D01*
X155548027Y-77115973D01*
X155444941Y-77031372D01*
X155327330Y-76968508D01*
X155199715Y-76929796D01*
X155100252Y-76920000D01*
X155100245Y-76920000D01*
X155067000Y-76916726D01*
X155033755Y-76920000D01*
X145457000Y-76920000D01*
X145457000Y-73035000D01*
X163596418Y-73035000D01*
X163596418Y-75767000D01*
X163609149Y-75896263D01*
X163646854Y-76020559D01*
X163708083Y-76135111D01*
X163790484Y-76235516D01*
X163890889Y-76317917D01*
X164005441Y-76379146D01*
X164129737Y-76416851D01*
X164259000Y-76429582D01*
X165591000Y-76429582D01*
X165720263Y-76416851D01*
X165844559Y-76379146D01*
X165959111Y-76317917D01*
X166059516Y-76235516D01*
X166141917Y-76135111D01*
X166203146Y-76020559D01*
X166240851Y-75896263D01*
X166253582Y-75767000D01*
X166253582Y-73035000D01*
X166240851Y-72905737D01*
X166203146Y-72781441D01*
X166141917Y-72666889D01*
X166059516Y-72566484D01*
X165959111Y-72484083D01*
X165844559Y-72422854D01*
X165720263Y-72385149D01*
X165591000Y-72372418D01*
X164259000Y-72372418D01*
X164129737Y-72385149D01*
X164005441Y-72422854D01*
X163890889Y-72484083D01*
X163790484Y-72566484D01*
X163708083Y-72666889D01*
X163646854Y-72781441D01*
X163609149Y-72905737D01*
X163596418Y-73035000D01*
X145457000Y-73035000D01*
X145457000Y-70651000D01*
X165886928Y-70651000D01*
X165899188Y-70775482D01*
X165935498Y-70895180D01*
X165994463Y-71005494D01*
X166073815Y-71102185D01*
X166170506Y-71181537D01*
X166280820Y-71240502D01*
X166400518Y-71276812D01*
X166525000Y-71289072D01*
X166989250Y-71286000D01*
X167148000Y-71127250D01*
X167148000Y-68778000D01*
X166048750Y-68778000D01*
X165890000Y-68936750D01*
X165886928Y-70651000D01*
X145457000Y-70651000D01*
X145457000Y-67590421D01*
X145536223Y-67511198D01*
X145599627Y-67433940D01*
X145662491Y-67316330D01*
X145701203Y-67188715D01*
X145714274Y-67056001D01*
X145701203Y-66923286D01*
X145662491Y-66795671D01*
X145599627Y-66678060D01*
X145551500Y-66619417D01*
X145551500Y-65040057D01*
X145646930Y-65118374D01*
X145851403Y-65227667D01*
X146073268Y-65294969D01*
X146246188Y-65312000D01*
X146361812Y-65312000D01*
X146534732Y-65294969D01*
X146756597Y-65227667D01*
X146961070Y-65118374D01*
X147140291Y-64971291D01*
X147287374Y-64792070D01*
X147396667Y-64587597D01*
X147463969Y-64365732D01*
X147486694Y-64135000D01*
X147472127Y-63987096D01*
X148639906Y-62819318D01*
X148657159Y-62805159D01*
X148713643Y-62736333D01*
X148755614Y-62657810D01*
X148763078Y-62633204D01*
X148781460Y-62572608D01*
X148790187Y-62484000D01*
X148788000Y-62461795D01*
X148788000Y-60394548D01*
X149462057Y-60394548D01*
X149738227Y-60812518D01*
X150283157Y-61103049D01*
X150874296Y-61281687D01*
X151488928Y-61341568D01*
X152103431Y-61280390D01*
X152694192Y-61100503D01*
X153232973Y-60812518D01*
X153509143Y-60394548D01*
X151485600Y-58371005D01*
X149462057Y-60394548D01*
X148788000Y-60394548D01*
X148788000Y-59795686D01*
X148864482Y-59938773D01*
X149282452Y-60214943D01*
X151305995Y-58191400D01*
X151665205Y-58191400D01*
X153688748Y-60214943D01*
X154106718Y-59938773D01*
X154397249Y-59393843D01*
X154575887Y-58802704D01*
X154635768Y-58188072D01*
X154574590Y-57573569D01*
X154394703Y-56982808D01*
X154106718Y-56444027D01*
X153688748Y-56167857D01*
X151665205Y-58191400D01*
X151305995Y-58191400D01*
X149282452Y-56167857D01*
X148864482Y-56444027D01*
X148573951Y-56988957D01*
X148570755Y-56999532D01*
X148417322Y-56846099D01*
X148417313Y-56846088D01*
X148036317Y-56465094D01*
X148036313Y-56465089D01*
X147401323Y-55830100D01*
X147387159Y-55812841D01*
X147318333Y-55756357D01*
X147239810Y-55714386D01*
X147154607Y-55688540D01*
X147088205Y-55682000D01*
X147066000Y-55679813D01*
X147043795Y-55682000D01*
X140611204Y-55682000D01*
X140588999Y-55679813D01*
X140500392Y-55688540D01*
X140480562Y-55694556D01*
X140415190Y-55714386D01*
X140336667Y-55756357D01*
X140267841Y-55812841D01*
X140253686Y-55830089D01*
X135507359Y-60576418D01*
X135374500Y-60576418D01*
X135310397Y-60582732D01*
X135248757Y-60601430D01*
X135191950Y-60631794D01*
X135142157Y-60672657D01*
X135101294Y-60722450D01*
X135070930Y-60779257D01*
X135052232Y-60840897D01*
X135045918Y-60905000D01*
X135045918Y-62605000D01*
X135052232Y-62669103D01*
X135070930Y-62730743D01*
X135101294Y-62787550D01*
X135106587Y-62794000D01*
X134908193Y-62794000D01*
X134911915Y-58699950D01*
X135485476Y-58699950D01*
X135494168Y-58700806D01*
X135502860Y-58699950D01*
X135528866Y-58697389D01*
X135562231Y-58687268D01*
X135592979Y-58670832D01*
X135619931Y-58648713D01*
X135642050Y-58621761D01*
X135658486Y-58591013D01*
X135668607Y-58557648D01*
X135672024Y-58522950D01*
X135671168Y-58514258D01*
X135671168Y-57435943D01*
X137089520Y-57435943D01*
X137098212Y-57436799D01*
X137106904Y-57435943D01*
X137132910Y-57433382D01*
X137166275Y-57423261D01*
X137197023Y-57406825D01*
X137223975Y-57384706D01*
X137246094Y-57357754D01*
X137262530Y-57327006D01*
X137272651Y-57293641D01*
X137276068Y-57258943D01*
X137275212Y-57250251D01*
X137275212Y-55592645D01*
X149723451Y-55592645D01*
X149462057Y-55988252D01*
X149462057Y-55988252D01*
G37*
X149462057Y-55988252D02*
X151485600Y-58011795D01*
X153509143Y-55988252D01*
X153247749Y-55592645D01*
X163033596Y-55592645D01*
X163033595Y-57250251D01*
X163032739Y-57258943D01*
X163036156Y-57293641D01*
X163046277Y-57327006D01*
X163062713Y-57357754D01*
X163084832Y-57384706D01*
X163108341Y-57403999D01*
X163111784Y-57406825D01*
X163142532Y-57423261D01*
X163175897Y-57433382D01*
X163210595Y-57436799D01*
X163219287Y-57435943D01*
X164133270Y-57435943D01*
X164133269Y-58514258D01*
X164132413Y-58522950D01*
X164135830Y-58557648D01*
X164145951Y-58591013D01*
X164162387Y-58621761D01*
X164184506Y-58648713D01*
X164211226Y-58670642D01*
X164211458Y-58670832D01*
X164242206Y-58687268D01*
X164275571Y-58697389D01*
X164310269Y-58700806D01*
X164318961Y-58699950D01*
X165344103Y-58699950D01*
X165344102Y-62726749D01*
X165344103Y-62726759D01*
X165344102Y-66350261D01*
X165343247Y-66359245D01*
X165344983Y-66376298D01*
X165346663Y-66393358D01*
X165346748Y-66393639D01*
X165346778Y-66393931D01*
X165351792Y-66410266D01*
X165356784Y-66426723D01*
X165356923Y-66426983D01*
X165357009Y-66427263D01*
X165365114Y-66442307D01*
X165373220Y-66457471D01*
X165373407Y-66457699D01*
X165373546Y-66457957D01*
X165384484Y-66471196D01*
X165395339Y-66484423D01*
X165395565Y-66484609D01*
X165395753Y-66484836D01*
X165408953Y-66495596D01*
X165422291Y-66506543D01*
X165422555Y-66506684D01*
X165422778Y-66506866D01*
X165437645Y-66514750D01*
X165453039Y-66522979D01*
X165453325Y-66523066D01*
X165453580Y-66523201D01*
X165469826Y-66528071D01*
X165486404Y-66533100D01*
X165486697Y-66533129D01*
X165486978Y-66533213D01*
X165503900Y-66534823D01*
X165521102Y-66536517D01*
X165530090Y-66535632D01*
X165898410Y-66534422D01*
X165886928Y-66651000D01*
X165890000Y-68365250D01*
X166048750Y-68524000D01*
X167148000Y-68524000D01*
X167148000Y-66174750D01*
X166989250Y-66016000D01*
X166794162Y-66014709D01*
X166794162Y-64953864D01*
X168309660Y-64953864D01*
X168318352Y-64954720D01*
X168327044Y-64953864D01*
X168353050Y-64951303D01*
X168386415Y-64941182D01*
X168417163Y-64924746D01*
X168444115Y-64902627D01*
X168466234Y-64875675D01*
X168482670Y-64844927D01*
X168492791Y-64811562D01*
X168496208Y-64776864D01*
X168495352Y-64768172D01*
X168495352Y-63426308D01*
X171150983Y-63426308D01*
X171150982Y-64768172D01*
X171150126Y-64776864D01*
X171153543Y-64811562D01*
X171163664Y-64844927D01*
X171180100Y-64875675D01*
X171202219Y-64902627D01*
X171229171Y-64924746D01*
X171259919Y-64941182D01*
X171293284Y-64951303D01*
X171327982Y-64954720D01*
X171336674Y-64953864D01*
X172695593Y-64953864D01*
X172695592Y-70664411D01*
X172694736Y-70673103D01*
X172698153Y-70707801D01*
X172708274Y-70741166D01*
X172724710Y-70771914D01*
X172746829Y-70798866D01*
X172773781Y-70820985D01*
X172804529Y-70837421D01*
X172837894Y-70847542D01*
X172872592Y-70850959D01*
X172881284Y-70850103D01*
X173930143Y-70850103D01*
X173930142Y-78132827D01*
X172881284Y-78132827D01*
X172872592Y-78131971D01*
X172863900Y-78132827D01*
X172837894Y-78135388D01*
X172804529Y-78145509D01*
X172773781Y-78161945D01*
X172746829Y-78184064D01*
X172724710Y-78211016D01*
X172708274Y-78241764D01*
X172698153Y-78275129D01*
X172694736Y-78309827D01*
X172695593Y-78318529D01*
X172695592Y-79521374D01*
X171402834Y-79521374D01*
X171394142Y-79520518D01*
X171385450Y-79521374D01*
X171359444Y-79523935D01*
X171326079Y-79534056D01*
X171295331Y-79550492D01*
X171268379Y-79572611D01*
X171246260Y-79599563D01*
X171229824Y-79630311D01*
X171219703Y-79663676D01*
X171216286Y-79698374D01*
X171217143Y-79707076D01*
X171217142Y-80951261D01*
X169783814Y-80951261D01*
X169775122Y-80950405D01*
X169766430Y-80951261D01*
X169740424Y-80953822D01*
X169707059Y-80963943D01*
X169676311Y-80980379D01*
X169649359Y-81002498D01*
X169627240Y-81029450D01*
X169610804Y-81060198D01*
X169600683Y-81093563D01*
X169597266Y-81128261D01*
X169598123Y-81136963D01*
X169598122Y-83197292D01*
X169598123Y-83197302D01*
X169598122Y-85685293D01*
X165387158Y-85685293D01*
X165387158Y-84980797D01*
X165388014Y-84972106D01*
X165384597Y-84937408D01*
X165374476Y-84904043D01*
X165358040Y-84873295D01*
X165335921Y-84846343D01*
X165308969Y-84824224D01*
X165278221Y-84807788D01*
X165244856Y-84797667D01*
X165218850Y-84795106D01*
X165210158Y-84794250D01*
X165201466Y-84795106D01*
X164092917Y-84795106D01*
X164092917Y-83287164D01*
X164093773Y-83278472D01*
X164090356Y-83243774D01*
X164080235Y-83210409D01*
X164063799Y-83179661D01*
X164041680Y-83152709D01*
X164014728Y-83130590D01*
X163983980Y-83114154D01*
X163950615Y-83104033D01*
X163924609Y-83101472D01*
X163915917Y-83100616D01*
X163907225Y-83101472D01*
X163141018Y-83101472D01*
X163145182Y-83059200D01*
X163145182Y-82259200D01*
X163138868Y-82195097D01*
X163120170Y-82133457D01*
X163089806Y-82076650D01*
X163048943Y-82026857D01*
X162999150Y-81985994D01*
X162942343Y-81955630D01*
X162880703Y-81936932D01*
X162816600Y-81930618D01*
X161316600Y-81930618D01*
X161252497Y-81936932D01*
X161190857Y-81955630D01*
X161134050Y-81985994D01*
X161084257Y-82026857D01*
X161043394Y-82076650D01*
X161013030Y-82133457D01*
X160994332Y-82195097D01*
X160988018Y-82259200D01*
X160988018Y-83059200D01*
X160994332Y-83123303D01*
X161013030Y-83184943D01*
X161043394Y-83241750D01*
X161084257Y-83291543D01*
X161134050Y-83332406D01*
X161190857Y-83362770D01*
X161252497Y-83381468D01*
X161316600Y-83387782D01*
X162099878Y-83387782D01*
X162099877Y-85685293D01*
X157868531Y-85685293D01*
X157868531Y-84980797D01*
X157869387Y-84972106D01*
X157865970Y-84937408D01*
X157855849Y-84904043D01*
X157839413Y-84873295D01*
X157817294Y-84846343D01*
X157790342Y-84824224D01*
X157759594Y-84807788D01*
X157726229Y-84797667D01*
X157700223Y-84795106D01*
X157691531Y-84794250D01*
X157682839Y-84795106D01*
X156591047Y-84795106D01*
X156591047Y-83287164D01*
X156591903Y-83278472D01*
X156588486Y-83243774D01*
X156578365Y-83210409D01*
X156561929Y-83179661D01*
X156539810Y-83152709D01*
X156512858Y-83130590D01*
X156482110Y-83114154D01*
X156448745Y-83104033D01*
X156422739Y-83101472D01*
X156414047Y-83100616D01*
X156405355Y-83101472D01*
X155441018Y-83101472D01*
X155445182Y-83059200D01*
X155445182Y-82259200D01*
X155438868Y-82195097D01*
X155420170Y-82133457D01*
X155389806Y-82076650D01*
X155348943Y-82026857D01*
X155299150Y-81985994D01*
X155242343Y-81955630D01*
X155180703Y-81936932D01*
X155116600Y-81930618D01*
X153616600Y-81930618D01*
X153552497Y-81936932D01*
X153490857Y-81955630D01*
X153434050Y-81985994D01*
X153384257Y-82026857D01*
X153343394Y-82076650D01*
X153313030Y-82133457D01*
X153294332Y-82195097D01*
X153288018Y-82259200D01*
X153288018Y-83059200D01*
X153292182Y-83101472D01*
X147569147Y-83101472D01*
X147560455Y-83100616D01*
X147551763Y-83101472D01*
X147525757Y-83104033D01*
X147492392Y-83114154D01*
X147461644Y-83130590D01*
X147434692Y-83152709D01*
X147412573Y-83179661D01*
X147396137Y-83210409D01*
X147386016Y-83243774D01*
X147382599Y-83278472D01*
X147383456Y-83287174D01*
X147383455Y-84484510D01*
X147383456Y-84484520D01*
X147383455Y-85685293D01*
X143700115Y-85685293D01*
X143700115Y-84980797D01*
X143700971Y-84972106D01*
X143697554Y-84937408D01*
X143687433Y-84904043D01*
X143670997Y-84873295D01*
X143648878Y-84846343D01*
X143621926Y-84824224D01*
X143591178Y-84807788D01*
X143557813Y-84797667D01*
X143531807Y-84795106D01*
X143523115Y-84794250D01*
X143514423Y-84795106D01*
X142363485Y-84795106D01*
X142363485Y-83287164D01*
X142364341Y-83278472D01*
X142360924Y-83243774D01*
X142350803Y-83210409D01*
X142334367Y-83179661D01*
X142312248Y-83152709D01*
X142285296Y-83130590D01*
X142254548Y-83114154D01*
X142221183Y-83104033D01*
X142195177Y-83101472D01*
X142186485Y-83100616D01*
X142177793Y-83101472D01*
X140407837Y-83101472D01*
X140399145Y-83100616D01*
X140390453Y-83101472D01*
X140364447Y-83104033D01*
X140331082Y-83114154D01*
X140300334Y-83130590D01*
X140273382Y-83152709D01*
X140251263Y-83179661D01*
X140234827Y-83210409D01*
X140224706Y-83243774D01*
X140221289Y-83278472D01*
X140222146Y-83287174D01*
X140222145Y-84795106D01*
X139051467Y-84795106D01*
X139042775Y-84794250D01*
X139034083Y-84795106D01*
X139008077Y-84797667D01*
X138974712Y-84807788D01*
X138943964Y-84824224D01*
X138917012Y-84846343D01*
X138894893Y-84873295D01*
X138878457Y-84904043D01*
X138868336Y-84937408D01*
X138864919Y-84972106D01*
X138865776Y-84980808D01*
X138865775Y-85685293D01*
X135522825Y-85685293D01*
X135522825Y-83843724D01*
X135523681Y-83835032D01*
X135520264Y-83800334D01*
X135510143Y-83766969D01*
X135493707Y-83736221D01*
X135471588Y-83709269D01*
X135444636Y-83687150D01*
X135413888Y-83670714D01*
X135380523Y-83660593D01*
X135354517Y-83658032D01*
X135345825Y-83657176D01*
X135337133Y-83658032D01*
X134887852Y-83658032D01*
X134899397Y-81903136D01*
X134899400Y-81902300D01*
X134899400Y-79036000D01*
X138904755Y-79036000D01*
X138938000Y-79039274D01*
X138971245Y-79036000D01*
X138971252Y-79036000D01*
X139070715Y-79026204D01*
X139198330Y-78987492D01*
X139315941Y-78924628D01*
X139419027Y-78840027D01*
X139440226Y-78814196D01*
X139980423Y-78274000D01*
X144746748Y-78274000D01*
X144780000Y-78277275D01*
X144813252Y-78274000D01*
X154786578Y-78274000D01*
X155288018Y-78775441D01*
X155288018Y-79770044D01*
X155242343Y-79745630D01*
X155180703Y-79726932D01*
X155116600Y-79720618D01*
X153616600Y-79720618D01*
X153552497Y-79726932D01*
X153490857Y-79745630D01*
X153434050Y-79775994D01*
X153384257Y-79816857D01*
X153343394Y-79866650D01*
X153313030Y-79923457D01*
X153294332Y-79985097D01*
X153288018Y-80049200D01*
X153288018Y-80849200D01*
X153294332Y-80913303D01*
X153313030Y-80974943D01*
X153343394Y-81031750D01*
X153384257Y-81081543D01*
X153434050Y-81122406D01*
X153490857Y-81152770D01*
X153552497Y-81171468D01*
X153616600Y-81177782D01*
X155116600Y-81177782D01*
X155180703Y-81171468D01*
X155242343Y-81152770D01*
X155299150Y-81122406D01*
X155348943Y-81081543D01*
X155389806Y-81031750D01*
X155420170Y-80974943D01*
X155438868Y-80913303D01*
X155442454Y-80876898D01*
X155490857Y-80902770D01*
X155552497Y-80921468D01*
X155616600Y-80927782D01*
X156316600Y-80927782D01*
X156380703Y-80921468D01*
X156442343Y-80902770D01*
X156499150Y-80872406D01*
X156548943Y-80831543D01*
X156589806Y-80781750D01*
X156620170Y-80724943D01*
X156638868Y-80663303D01*
X156645182Y-80599200D01*
X156645182Y-78599200D01*
X156643600Y-78583139D01*
X156643600Y-78529852D01*
X156646875Y-78496600D01*
X156633804Y-78363885D01*
X156595092Y-78236270D01*
X156532228Y-78118659D01*
X156532016Y-78118400D01*
X156786326Y-78118400D01*
X156789600Y-78151645D01*
X156789600Y-78583136D01*
X156788018Y-78599200D01*
X156788018Y-80599200D01*
X156794332Y-80663303D01*
X156813030Y-80724943D01*
X156843394Y-80781750D01*
X156884257Y-80831543D01*
X156934050Y-80872406D01*
X156990857Y-80902770D01*
X157052497Y-80921468D01*
X157116600Y-80927782D01*
X157816600Y-80927782D01*
X157880703Y-80921468D01*
X157942343Y-80902770D01*
X157999150Y-80872406D01*
X158048943Y-80831543D01*
X158089806Y-80781750D01*
X158120170Y-80724943D01*
X158138868Y-80663303D01*
X158145182Y-80599200D01*
X158145182Y-78599200D01*
X159788018Y-78599200D01*
X159788018Y-80599200D01*
X159794332Y-80663303D01*
X159813030Y-80724943D01*
X159843394Y-80781750D01*
X159884257Y-80831543D01*
X159934050Y-80872406D01*
X159990857Y-80902770D01*
X160052497Y-80921468D01*
X160116600Y-80927782D01*
X160816600Y-80927782D01*
X160880703Y-80921468D01*
X160942343Y-80902770D01*
X160990746Y-80876898D01*
X160994332Y-80913303D01*
X161013030Y-80974943D01*
X161043394Y-81031750D01*
X161084257Y-81081543D01*
X161134050Y-81122406D01*
X161190857Y-81152770D01*
X161252497Y-81171468D01*
X161316600Y-81177782D01*
X162816600Y-81177782D01*
X162880703Y-81171468D01*
X162942343Y-81152770D01*
X162999150Y-81122406D01*
X163048943Y-81081543D01*
X163089806Y-81031750D01*
X163120170Y-80974943D01*
X163138868Y-80913303D01*
X163145182Y-80849200D01*
X163145182Y-80049200D01*
X163138868Y-79985097D01*
X163120170Y-79923457D01*
X163089806Y-79866650D01*
X163048943Y-79816857D01*
X162999150Y-79775994D01*
X162942343Y-79745630D01*
X162880703Y-79726932D01*
X162816600Y-79720618D01*
X161316600Y-79720618D01*
X161252497Y-79726932D01*
X161190857Y-79745630D01*
X161145182Y-79770044D01*
X161145182Y-78599200D01*
X161138868Y-78535097D01*
X161120170Y-78473457D01*
X161089806Y-78416650D01*
X161048943Y-78366857D01*
X160999150Y-78325994D01*
X160942343Y-78295630D01*
X160880703Y-78276932D01*
X160816600Y-78270618D01*
X160116600Y-78270618D01*
X160052497Y-78276932D01*
X159990857Y-78295630D01*
X159934050Y-78325994D01*
X159884257Y-78366857D01*
X159843394Y-78416650D01*
X159813030Y-78473457D01*
X159794332Y-78535097D01*
X159788018Y-78599200D01*
X158145182Y-78599200D01*
X158143600Y-78583139D01*
X158143600Y-78398822D01*
X158522422Y-78020000D01*
X167987755Y-78020000D01*
X168021000Y-78023274D01*
X168054245Y-78020000D01*
X168054252Y-78020000D01*
X168153715Y-78010204D01*
X168281330Y-77971492D01*
X168398941Y-77908628D01*
X168502027Y-77824027D01*
X168523226Y-77798196D01*
X169730201Y-76591222D01*
X169756027Y-76570027D01*
X169840628Y-76466941D01*
X169903492Y-76349330D01*
X169942204Y-76221715D01*
X169952000Y-76122252D01*
X169955275Y-76089000D01*
X169952000Y-76055748D01*
X169952000Y-73035000D01*
X170296418Y-73035000D01*
X170296418Y-75767000D01*
X170309149Y-75896263D01*
X170346854Y-76020559D01*
X170408083Y-76135111D01*
X170490484Y-76235516D01*
X170590889Y-76317917D01*
X170705441Y-76379146D01*
X170829737Y-76416851D01*
X170959000Y-76429582D01*
X172291000Y-76429582D01*
X172420263Y-76416851D01*
X172544559Y-76379146D01*
X172659111Y-76317917D01*
X172759516Y-76235516D01*
X172841917Y-76135111D01*
X172903146Y-76020559D01*
X172940851Y-75896263D01*
X172953582Y-75767000D01*
X172953582Y-73035000D01*
X172940851Y-72905737D01*
X172903146Y-72781441D01*
X172841917Y-72666889D01*
X172759516Y-72566484D01*
X172659111Y-72484083D01*
X172544559Y-72422854D01*
X172420263Y-72385149D01*
X172291000Y-72372418D01*
X170959000Y-72372418D01*
X170829737Y-72385149D01*
X170705441Y-72422854D01*
X170590889Y-72484083D01*
X170490484Y-72566484D01*
X170408083Y-72666889D01*
X170346854Y-72781441D01*
X170309149Y-72905737D01*
X170296418Y-73035000D01*
X169952000Y-73035000D01*
X169952000Y-70908519D01*
X170040889Y-70861007D01*
X170147508Y-70773508D01*
X170235007Y-70666889D01*
X170300025Y-70545249D01*
X170340063Y-70413262D01*
X170353582Y-70276000D01*
X170353582Y-67026000D01*
X170340063Y-66888738D01*
X170300025Y-66756751D01*
X170235007Y-66635111D01*
X170147508Y-66528492D01*
X170040889Y-66440993D01*
X169919249Y-66375975D01*
X169787262Y-66335937D01*
X169650000Y-66322418D01*
X168900000Y-66322418D01*
X168762738Y-66335937D01*
X168630751Y-66375975D01*
X168605289Y-66389585D01*
X168555537Y-66296506D01*
X168476185Y-66199815D01*
X168379494Y-66120463D01*
X168269180Y-66061498D01*
X168149482Y-66025188D01*
X168025000Y-66012928D01*
X167560750Y-66016000D01*
X167402000Y-66174750D01*
X167402000Y-68524000D01*
X167422000Y-68524000D01*
X167422000Y-68778000D01*
X167402000Y-68778000D01*
X167402000Y-71127250D01*
X167560750Y-71286000D01*
X168025000Y-71289072D01*
X168149482Y-71276812D01*
X168269180Y-71240502D01*
X168379494Y-71181537D01*
X168476185Y-71102185D01*
X168555537Y-71005494D01*
X168598000Y-70926052D01*
X168598001Y-75808576D01*
X167740578Y-76666000D01*
X158275241Y-76666000D01*
X158241999Y-76662726D01*
X158208757Y-76666000D01*
X158208748Y-76666000D01*
X158109285Y-76675796D01*
X157981670Y-76714508D01*
X157864059Y-76777372D01*
X157760973Y-76861973D01*
X157739776Y-76887802D01*
X157011400Y-77616178D01*
X156985573Y-77637374D01*
X156900972Y-77740460D01*
X156838108Y-77858071D01*
X156799396Y-77985686D01*
X156789600Y-78085149D01*
X156789600Y-78085155D01*
X156786326Y-78118400D01*
X156532016Y-78118400D01*
X156468824Y-78041401D01*
X156468818Y-78041395D01*
X156447626Y-78015573D01*
X156421805Y-77994382D01*
X155569226Y-77141804D01*
X155548027Y-77115973D01*
X155444941Y-77031372D01*
X155327330Y-76968508D01*
X155199715Y-76929796D01*
X155100252Y-76920000D01*
X155100245Y-76920000D01*
X155067000Y-76916726D01*
X155033755Y-76920000D01*
X145457000Y-76920000D01*
X145457000Y-73035000D01*
X163596418Y-73035000D01*
X163596418Y-75767000D01*
X163609149Y-75896263D01*
X163646854Y-76020559D01*
X163708083Y-76135111D01*
X163790484Y-76235516D01*
X163890889Y-76317917D01*
X164005441Y-76379146D01*
X164129737Y-76416851D01*
X164259000Y-76429582D01*
X165591000Y-76429582D01*
X165720263Y-76416851D01*
X165844559Y-76379146D01*
X165959111Y-76317917D01*
X166059516Y-76235516D01*
X166141917Y-76135111D01*
X166203146Y-76020559D01*
X166240851Y-75896263D01*
X166253582Y-75767000D01*
X166253582Y-73035000D01*
X166240851Y-72905737D01*
X166203146Y-72781441D01*
X166141917Y-72666889D01*
X166059516Y-72566484D01*
X165959111Y-72484083D01*
X165844559Y-72422854D01*
X165720263Y-72385149D01*
X165591000Y-72372418D01*
X164259000Y-72372418D01*
X164129737Y-72385149D01*
X164005441Y-72422854D01*
X163890889Y-72484083D01*
X163790484Y-72566484D01*
X163708083Y-72666889D01*
X163646854Y-72781441D01*
X163609149Y-72905737D01*
X163596418Y-73035000D01*
X145457000Y-73035000D01*
X145457000Y-70651000D01*
X165886928Y-70651000D01*
X165899188Y-70775482D01*
X165935498Y-70895180D01*
X165994463Y-71005494D01*
X166073815Y-71102185D01*
X166170506Y-71181537D01*
X166280820Y-71240502D01*
X166400518Y-71276812D01*
X166525000Y-71289072D01*
X166989250Y-71286000D01*
X167148000Y-71127250D01*
X167148000Y-68778000D01*
X166048750Y-68778000D01*
X165890000Y-68936750D01*
X165886928Y-70651000D01*
X145457000Y-70651000D01*
X145457000Y-67590421D01*
X145536223Y-67511198D01*
X145599627Y-67433940D01*
X145662491Y-67316330D01*
X145701203Y-67188715D01*
X145714274Y-67056001D01*
X145701203Y-66923286D01*
X145662491Y-66795671D01*
X145599627Y-66678060D01*
X145551500Y-66619417D01*
X145551500Y-65040057D01*
X145646930Y-65118374D01*
X145851403Y-65227667D01*
X146073268Y-65294969D01*
X146246188Y-65312000D01*
X146361812Y-65312000D01*
X146534732Y-65294969D01*
X146756597Y-65227667D01*
X146961070Y-65118374D01*
X147140291Y-64971291D01*
X147287374Y-64792070D01*
X147396667Y-64587597D01*
X147463969Y-64365732D01*
X147486694Y-64135000D01*
X147472127Y-63987096D01*
X148639906Y-62819318D01*
X148657159Y-62805159D01*
X148713643Y-62736333D01*
X148755614Y-62657810D01*
X148763078Y-62633204D01*
X148781460Y-62572608D01*
X148790187Y-62484000D01*
X148788000Y-62461795D01*
X148788000Y-60394548D01*
X149462057Y-60394548D01*
X149738227Y-60812518D01*
X150283157Y-61103049D01*
X150874296Y-61281687D01*
X151488928Y-61341568D01*
X152103431Y-61280390D01*
X152694192Y-61100503D01*
X153232973Y-60812518D01*
X153509143Y-60394548D01*
X151485600Y-58371005D01*
X149462057Y-60394548D01*
X148788000Y-60394548D01*
X148788000Y-59795686D01*
X148864482Y-59938773D01*
X149282452Y-60214943D01*
X151305995Y-58191400D01*
X151665205Y-58191400D01*
X153688748Y-60214943D01*
X154106718Y-59938773D01*
X154397249Y-59393843D01*
X154575887Y-58802704D01*
X154635768Y-58188072D01*
X154574590Y-57573569D01*
X154394703Y-56982808D01*
X154106718Y-56444027D01*
X153688748Y-56167857D01*
X151665205Y-58191400D01*
X151305995Y-58191400D01*
X149282452Y-56167857D01*
X148864482Y-56444027D01*
X148573951Y-56988957D01*
X148570755Y-56999532D01*
X148417322Y-56846099D01*
X148417313Y-56846088D01*
X148036317Y-56465094D01*
X148036313Y-56465089D01*
X147401323Y-55830100D01*
X147387159Y-55812841D01*
X147318333Y-55756357D01*
X147239810Y-55714386D01*
X147154607Y-55688540D01*
X147088205Y-55682000D01*
X147066000Y-55679813D01*
X147043795Y-55682000D01*
X140611204Y-55682000D01*
X140588999Y-55679813D01*
X140500392Y-55688540D01*
X140480562Y-55694556D01*
X140415190Y-55714386D01*
X140336667Y-55756357D01*
X140267841Y-55812841D01*
X140253686Y-55830089D01*
X135507359Y-60576418D01*
X135374500Y-60576418D01*
X135310397Y-60582732D01*
X135248757Y-60601430D01*
X135191950Y-60631794D01*
X135142157Y-60672657D01*
X135101294Y-60722450D01*
X135070930Y-60779257D01*
X135052232Y-60840897D01*
X135045918Y-60905000D01*
X135045918Y-62605000D01*
X135052232Y-62669103D01*
X135070930Y-62730743D01*
X135101294Y-62787550D01*
X135106587Y-62794000D01*
X134908193Y-62794000D01*
X134911915Y-58699950D01*
X135485476Y-58699950D01*
X135494168Y-58700806D01*
X135502860Y-58699950D01*
X135528866Y-58697389D01*
X135562231Y-58687268D01*
X135592979Y-58670832D01*
X135619931Y-58648713D01*
X135642050Y-58621761D01*
X135658486Y-58591013D01*
X135668607Y-58557648D01*
X135672024Y-58522950D01*
X135671168Y-58514258D01*
X135671168Y-57435943D01*
X137089520Y-57435943D01*
X137098212Y-57436799D01*
X137106904Y-57435943D01*
X137132910Y-57433382D01*
X137166275Y-57423261D01*
X137197023Y-57406825D01*
X137223975Y-57384706D01*
X137246094Y-57357754D01*
X137262530Y-57327006D01*
X137272651Y-57293641D01*
X137276068Y-57258943D01*
X137275212Y-57250251D01*
X137275212Y-55592645D01*
X149723451Y-55592645D01*
X149462057Y-55988252D01*
G36*
X138855361Y-77484217D02*
G01*
X138657578Y-77682000D01*
X134899400Y-77682000D01*
X134899400Y-76082501D01*
X134899412Y-76082500D01*
X137453645Y-76082500D01*
X138855361Y-77484217D01*
X138855361Y-77484217D01*
G37*
X138855361Y-77484217D02*
X138657578Y-77682000D01*
X134899400Y-77682000D01*
X134899400Y-76082501D01*
X134899412Y-76082500D01*
X137453645Y-76082500D01*
X138855361Y-77484217D01*
G36*
X143891000Y-64008000D02*
G01*
X143911000Y-64008000D01*
X143911000Y-64262000D01*
X143891000Y-64262000D01*
X143891000Y-65455814D01*
X144120891Y-65576481D01*
X144395252Y-65479157D01*
X144516501Y-65406933D01*
X144516501Y-66616078D01*
X144324801Y-66807777D01*
X144298974Y-66828973D01*
X144277779Y-66854799D01*
X144277776Y-66854802D01*
X144214372Y-66932060D01*
X144151508Y-67049671D01*
X144112796Y-67177286D01*
X144099726Y-67310000D01*
X144103001Y-67343255D01*
X144103000Y-76920000D01*
X139754856Y-76920000D01*
X138051903Y-75217048D01*
X138035698Y-75197302D01*
X137956898Y-75132633D01*
X137866997Y-75084580D01*
X137769448Y-75054989D01*
X137693413Y-75047500D01*
X137668000Y-75044997D01*
X137642587Y-75047500D01*
X135088356Y-75047500D01*
X134899400Y-74858545D01*
X134899400Y-74371000D01*
X136075928Y-74371000D01*
X136088188Y-74495482D01*
X136124498Y-74615180D01*
X136183463Y-74725494D01*
X136262815Y-74822185D01*
X136359506Y-74901537D01*
X136469820Y-74960502D01*
X136589518Y-74996812D01*
X136714000Y-75009072D01*
X137128250Y-75006000D01*
X137287000Y-74847250D01*
X137287000Y-73923000D01*
X137541000Y-73923000D01*
X137541000Y-74847250D01*
X137699750Y-75006000D01*
X138114000Y-75009072D01*
X138238482Y-74996812D01*
X138358180Y-74960502D01*
X138468494Y-74901537D01*
X138565185Y-74822185D01*
X138644537Y-74725494D01*
X138703502Y-74615180D01*
X138739812Y-74495482D01*
X138752072Y-74371000D01*
X138749000Y-74081750D01*
X138590250Y-73923000D01*
X137541000Y-73923000D01*
X137287000Y-73923000D01*
X136237750Y-73923000D01*
X136079000Y-74081750D01*
X136075928Y-74371000D01*
X134899400Y-74371000D01*
X134899400Y-73477455D01*
X135920452Y-72456403D01*
X135940198Y-72440198D01*
X136004867Y-72361398D01*
X136052920Y-72271497D01*
X136082511Y-72173948D01*
X136090000Y-72097913D01*
X136092503Y-72072500D01*
X136090000Y-72047087D01*
X136090000Y-71261422D01*
X136385418Y-71556841D01*
X136385418Y-72071001D01*
X136396535Y-72183877D01*
X136429460Y-72292414D01*
X136482926Y-72392443D01*
X136554880Y-72480120D01*
X136642557Y-72552074D01*
X136702416Y-72584069D01*
X136589518Y-72595188D01*
X136469820Y-72631498D01*
X136359506Y-72690463D01*
X136262815Y-72769815D01*
X136183463Y-72866506D01*
X136124498Y-72976820D01*
X136088188Y-73096518D01*
X136075928Y-73221000D01*
X136079000Y-73510250D01*
X136237750Y-73669000D01*
X137287000Y-73669000D01*
X137287000Y-73649000D01*
X137541000Y-73649000D01*
X137541000Y-73669000D01*
X138590250Y-73669000D01*
X138749000Y-73510250D01*
X138752072Y-73221000D01*
X138739812Y-73096518D01*
X138703502Y-72976820D01*
X138644537Y-72866506D01*
X138565185Y-72769815D01*
X138468494Y-72690463D01*
X138358180Y-72631498D01*
X138238482Y-72595188D01*
X138125584Y-72584069D01*
X138185443Y-72552074D01*
X138273120Y-72480120D01*
X138345074Y-72392443D01*
X138398540Y-72292414D01*
X138431465Y-72183877D01*
X138442582Y-72071001D01*
X138442582Y-71420999D01*
X138431465Y-71308123D01*
X138398540Y-71199586D01*
X138345074Y-71099557D01*
X138273120Y-71011880D01*
X138185443Y-70939926D01*
X138085414Y-70886460D01*
X137976877Y-70853535D01*
X137864001Y-70842418D01*
X137585841Y-70842418D01*
X136977004Y-70233582D01*
X137294500Y-70233582D01*
X137358603Y-70227268D01*
X137420243Y-70208570D01*
X137477050Y-70178206D01*
X137526843Y-70137343D01*
X137567706Y-70087550D01*
X137598070Y-70030743D01*
X137604500Y-70009546D01*
X137610930Y-70030743D01*
X137641294Y-70087550D01*
X137682157Y-70137343D01*
X137731950Y-70178206D01*
X137788757Y-70208570D01*
X137850397Y-70227268D01*
X137914500Y-70233582D01*
X138564500Y-70233582D01*
X138628603Y-70227268D01*
X138690243Y-70208570D01*
X138747050Y-70178206D01*
X138796843Y-70137343D01*
X138837706Y-70087550D01*
X138868070Y-70030743D01*
X138874500Y-70009546D01*
X138880930Y-70030743D01*
X138911294Y-70087550D01*
X138952157Y-70137343D01*
X139001950Y-70178206D01*
X139058757Y-70208570D01*
X139120397Y-70227268D01*
X139184500Y-70233582D01*
X139834500Y-70233582D01*
X139898603Y-70227268D01*
X139960243Y-70208570D01*
X140017050Y-70178206D01*
X140066843Y-70137343D01*
X140107706Y-70087550D01*
X140138070Y-70030743D01*
X140156768Y-69969103D01*
X140163082Y-69905000D01*
X140163082Y-68536141D01*
X142289906Y-66409318D01*
X142307159Y-66395159D01*
X142363643Y-66326333D01*
X142405614Y-66247810D01*
X142421765Y-66194568D01*
X142431460Y-66162608D01*
X142440187Y-66074000D01*
X142438000Y-66051795D01*
X142438000Y-64787794D01*
X142492359Y-64901920D01*
X142666412Y-65135269D01*
X142882645Y-65330178D01*
X143132748Y-65479157D01*
X143407109Y-65576481D01*
X143637000Y-65455814D01*
X143637000Y-64262000D01*
X143617000Y-64262000D01*
X143617000Y-64008000D01*
X143637000Y-64008000D01*
X143637000Y-63988000D01*
X143891000Y-63988000D01*
X143891000Y-64008000D01*
X143891000Y-64008000D01*
G37*
X143891000Y-64008000D02*
X143911000Y-64008000D01*
X143911000Y-64262000D01*
X143891000Y-64262000D01*
X143891000Y-65455814D01*
X144120891Y-65576481D01*
X144395252Y-65479157D01*
X144516501Y-65406933D01*
X144516501Y-66616078D01*
X144324801Y-66807777D01*
X144298974Y-66828973D01*
X144277779Y-66854799D01*
X144277776Y-66854802D01*
X144214372Y-66932060D01*
X144151508Y-67049671D01*
X144112796Y-67177286D01*
X144099726Y-67310000D01*
X144103001Y-67343255D01*
X144103000Y-76920000D01*
X139754856Y-76920000D01*
X138051903Y-75217048D01*
X138035698Y-75197302D01*
X137956898Y-75132633D01*
X137866997Y-75084580D01*
X137769448Y-75054989D01*
X137693413Y-75047500D01*
X137668000Y-75044997D01*
X137642587Y-75047500D01*
X135088356Y-75047500D01*
X134899400Y-74858545D01*
X134899400Y-74371000D01*
X136075928Y-74371000D01*
X136088188Y-74495482D01*
X136124498Y-74615180D01*
X136183463Y-74725494D01*
X136262815Y-74822185D01*
X136359506Y-74901537D01*
X136469820Y-74960502D01*
X136589518Y-74996812D01*
X136714000Y-75009072D01*
X137128250Y-75006000D01*
X137287000Y-74847250D01*
X137287000Y-73923000D01*
X137541000Y-73923000D01*
X137541000Y-74847250D01*
X137699750Y-75006000D01*
X138114000Y-75009072D01*
X138238482Y-74996812D01*
X138358180Y-74960502D01*
X138468494Y-74901537D01*
X138565185Y-74822185D01*
X138644537Y-74725494D01*
X138703502Y-74615180D01*
X138739812Y-74495482D01*
X138752072Y-74371000D01*
X138749000Y-74081750D01*
X138590250Y-73923000D01*
X137541000Y-73923000D01*
X137287000Y-73923000D01*
X136237750Y-73923000D01*
X136079000Y-74081750D01*
X136075928Y-74371000D01*
X134899400Y-74371000D01*
X134899400Y-73477455D01*
X135920452Y-72456403D01*
X135940198Y-72440198D01*
X136004867Y-72361398D01*
X136052920Y-72271497D01*
X136082511Y-72173948D01*
X136090000Y-72097913D01*
X136092503Y-72072500D01*
X136090000Y-72047087D01*
X136090000Y-71261422D01*
X136385418Y-71556841D01*
X136385418Y-72071001D01*
X136396535Y-72183877D01*
X136429460Y-72292414D01*
X136482926Y-72392443D01*
X136554880Y-72480120D01*
X136642557Y-72552074D01*
X136702416Y-72584069D01*
X136589518Y-72595188D01*
X136469820Y-72631498D01*
X136359506Y-72690463D01*
X136262815Y-72769815D01*
X136183463Y-72866506D01*
X136124498Y-72976820D01*
X136088188Y-73096518D01*
X136075928Y-73221000D01*
X136079000Y-73510250D01*
X136237750Y-73669000D01*
X137287000Y-73669000D01*
X137287000Y-73649000D01*
X137541000Y-73649000D01*
X137541000Y-73669000D01*
X138590250Y-73669000D01*
X138749000Y-73510250D01*
X138752072Y-73221000D01*
X138739812Y-73096518D01*
X138703502Y-72976820D01*
X138644537Y-72866506D01*
X138565185Y-72769815D01*
X138468494Y-72690463D01*
X138358180Y-72631498D01*
X138238482Y-72595188D01*
X138125584Y-72584069D01*
X138185443Y-72552074D01*
X138273120Y-72480120D01*
X138345074Y-72392443D01*
X138398540Y-72292414D01*
X138431465Y-72183877D01*
X138442582Y-72071001D01*
X138442582Y-71420999D01*
X138431465Y-71308123D01*
X138398540Y-71199586D01*
X138345074Y-71099557D01*
X138273120Y-71011880D01*
X138185443Y-70939926D01*
X138085414Y-70886460D01*
X137976877Y-70853535D01*
X137864001Y-70842418D01*
X137585841Y-70842418D01*
X136977004Y-70233582D01*
X137294500Y-70233582D01*
X137358603Y-70227268D01*
X137420243Y-70208570D01*
X137477050Y-70178206D01*
X137526843Y-70137343D01*
X137567706Y-70087550D01*
X137598070Y-70030743D01*
X137604500Y-70009546D01*
X137610930Y-70030743D01*
X137641294Y-70087550D01*
X137682157Y-70137343D01*
X137731950Y-70178206D01*
X137788757Y-70208570D01*
X137850397Y-70227268D01*
X137914500Y-70233582D01*
X138564500Y-70233582D01*
X138628603Y-70227268D01*
X138690243Y-70208570D01*
X138747050Y-70178206D01*
X138796843Y-70137343D01*
X138837706Y-70087550D01*
X138868070Y-70030743D01*
X138874500Y-70009546D01*
X138880930Y-70030743D01*
X138911294Y-70087550D01*
X138952157Y-70137343D01*
X139001950Y-70178206D01*
X139058757Y-70208570D01*
X139120397Y-70227268D01*
X139184500Y-70233582D01*
X139834500Y-70233582D01*
X139898603Y-70227268D01*
X139960243Y-70208570D01*
X140017050Y-70178206D01*
X140066843Y-70137343D01*
X140107706Y-70087550D01*
X140138070Y-70030743D01*
X140156768Y-69969103D01*
X140163082Y-69905000D01*
X140163082Y-68536141D01*
X142289906Y-66409318D01*
X142307159Y-66395159D01*
X142363643Y-66326333D01*
X142405614Y-66247810D01*
X142421765Y-66194568D01*
X142431460Y-66162608D01*
X142440187Y-66074000D01*
X142438000Y-66051795D01*
X142438000Y-64787794D01*
X142492359Y-64901920D01*
X142666412Y-65135269D01*
X142882645Y-65330178D01*
X143132748Y-65479157D01*
X143407109Y-65576481D01*
X143637000Y-65455814D01*
X143637000Y-64262000D01*
X143617000Y-64262000D01*
X143617000Y-64008000D01*
X143637000Y-64008000D01*
X143637000Y-63988000D01*
X143891000Y-63988000D01*
X143891000Y-64008000D01*
G36*
X147181276Y-56888500D02*
G01*
X141693200Y-56888500D01*
X141673496Y-56886340D01*
X141648781Y-56888500D01*
X141646295Y-56888500D01*
X141626706Y-56890429D01*
X141584798Y-56894092D01*
X141582388Y-56894794D01*
X141579893Y-56895040D01*
X141539711Y-56907229D01*
X141499316Y-56918999D01*
X141497088Y-56920159D01*
X141494690Y-56920886D01*
X141457638Y-56940691D01*
X141420337Y-56960104D01*
X141418381Y-56961674D01*
X141416167Y-56962857D01*
X141383662Y-56989533D01*
X141350893Y-57015828D01*
X141349281Y-57017749D01*
X141347341Y-57019341D01*
X141320656Y-57051857D01*
X141308000Y-57066937D01*
X141306596Y-57068989D01*
X141290857Y-57088167D01*
X141281512Y-57105650D01*
X140481097Y-58275488D01*
X140465357Y-58294668D01*
X140445532Y-58331758D01*
X140425324Y-58368584D01*
X140424569Y-58370978D01*
X140423386Y-58373191D01*
X140411183Y-58413418D01*
X140398542Y-58453498D01*
X140398269Y-58455992D01*
X140397540Y-58458394D01*
X140393417Y-58500253D01*
X140388841Y-58542004D01*
X140391000Y-58566710D01*
X140391000Y-60599079D01*
X140365037Y-60550506D01*
X140285685Y-60453815D01*
X140188994Y-60374463D01*
X140078680Y-60315498D01*
X139958982Y-60279188D01*
X139834500Y-60266928D01*
X139795250Y-60270000D01*
X139636500Y-60428750D01*
X139636500Y-61628000D01*
X139656500Y-61628000D01*
X139656500Y-61882000D01*
X139636500Y-61882000D01*
X139636500Y-63081250D01*
X139795250Y-63240000D01*
X139834500Y-63243072D01*
X139958982Y-63230812D01*
X140078680Y-63194502D01*
X140185224Y-63137552D01*
X136729100Y-66593677D01*
X136711841Y-66607841D01*
X136655357Y-66676668D01*
X136619169Y-66744372D01*
X136613386Y-66755191D01*
X136587540Y-66840393D01*
X136578813Y-66929000D01*
X136581000Y-66951205D01*
X136581001Y-67882673D01*
X136580397Y-67882732D01*
X136518757Y-67901430D01*
X136461950Y-67931794D01*
X136412157Y-67972657D01*
X136371294Y-68022450D01*
X136340930Y-68079257D01*
X136334500Y-68100454D01*
X136328070Y-68079257D01*
X136297706Y-68022450D01*
X136256843Y-67972657D01*
X136207050Y-67931794D01*
X136150243Y-67901430D01*
X136125713Y-67893989D01*
X136077440Y-67854372D01*
X135959829Y-67791508D01*
X135832214Y-67752796D01*
X135699500Y-67739725D01*
X135566785Y-67752796D01*
X135439170Y-67791508D01*
X135321559Y-67854372D01*
X135273286Y-67893989D01*
X135248757Y-67901430D01*
X135246755Y-67902500D01*
X134903549Y-67902500D01*
X134907371Y-63698000D01*
X136502795Y-63698000D01*
X136525000Y-63700187D01*
X136547205Y-63698000D01*
X136613607Y-63691460D01*
X136698810Y-63665614D01*
X136777333Y-63623643D01*
X136846159Y-63567159D01*
X136860323Y-63549900D01*
X137273405Y-63136819D01*
X137290659Y-63122659D01*
X137347143Y-63053833D01*
X137389114Y-62975310D01*
X137394365Y-62958000D01*
X137408257Y-62912206D01*
X137420243Y-62908570D01*
X137477050Y-62878206D01*
X137526843Y-62837343D01*
X137567706Y-62787550D01*
X137598070Y-62730743D01*
X137604500Y-62709546D01*
X137610930Y-62730743D01*
X137641294Y-62787550D01*
X137682157Y-62837343D01*
X137731950Y-62878206D01*
X137788757Y-62908570D01*
X137850397Y-62927268D01*
X137914500Y-62933582D01*
X138564500Y-62933582D01*
X138628603Y-62927268D01*
X138635603Y-62925145D01*
X138653963Y-62959494D01*
X138733315Y-63056185D01*
X138830006Y-63135537D01*
X138940320Y-63194502D01*
X139060018Y-63230812D01*
X139184500Y-63243072D01*
X139223750Y-63240000D01*
X139382500Y-63081250D01*
X139382500Y-61882000D01*
X139362500Y-61882000D01*
X139362500Y-61628000D01*
X139382500Y-61628000D01*
X139382500Y-60428750D01*
X139223750Y-60270000D01*
X139184500Y-60266928D01*
X139060018Y-60279188D01*
X138940320Y-60315498D01*
X138830006Y-60374463D01*
X138733315Y-60453815D01*
X138653963Y-60550506D01*
X138635603Y-60584855D01*
X138628603Y-60582732D01*
X138564500Y-60576418D01*
X137914500Y-60576418D01*
X137850397Y-60582732D01*
X137788757Y-60601430D01*
X137731950Y-60631794D01*
X137682157Y-60672657D01*
X137641294Y-60722450D01*
X137610930Y-60779257D01*
X137604500Y-60800454D01*
X137598070Y-60779257D01*
X137567706Y-60722450D01*
X137526843Y-60672657D01*
X137477050Y-60631794D01*
X137420243Y-60601430D01*
X137358603Y-60582732D01*
X137294500Y-60576418D01*
X136785805Y-60576418D01*
X140776225Y-56586000D01*
X146878777Y-56586000D01*
X147181276Y-56888500D01*
X147181276Y-56888500D01*
G37*
X147181276Y-56888500D02*
X141693200Y-56888500D01*
X141673496Y-56886340D01*
X141648781Y-56888500D01*
X141646295Y-56888500D01*
X141626706Y-56890429D01*
X141584798Y-56894092D01*
X141582388Y-56894794D01*
X141579893Y-56895040D01*
X141539711Y-56907229D01*
X141499316Y-56918999D01*
X141497088Y-56920159D01*
X141494690Y-56920886D01*
X141457638Y-56940691D01*
X141420337Y-56960104D01*
X141418381Y-56961674D01*
X141416167Y-56962857D01*
X141383662Y-56989533D01*
X141350893Y-57015828D01*
X141349281Y-57017749D01*
X141347341Y-57019341D01*
X141320656Y-57051857D01*
X141308000Y-57066937D01*
X141306596Y-57068989D01*
X141290857Y-57088167D01*
X141281512Y-57105650D01*
X140481097Y-58275488D01*
X140465357Y-58294668D01*
X140445532Y-58331758D01*
X140425324Y-58368584D01*
X140424569Y-58370978D01*
X140423386Y-58373191D01*
X140411183Y-58413418D01*
X140398542Y-58453498D01*
X140398269Y-58455992D01*
X140397540Y-58458394D01*
X140393417Y-58500253D01*
X140388841Y-58542004D01*
X140391000Y-58566710D01*
X140391000Y-60599079D01*
X140365037Y-60550506D01*
X140285685Y-60453815D01*
X140188994Y-60374463D01*
X140078680Y-60315498D01*
X139958982Y-60279188D01*
X139834500Y-60266928D01*
X139795250Y-60270000D01*
X139636500Y-60428750D01*
X139636500Y-61628000D01*
X139656500Y-61628000D01*
X139656500Y-61882000D01*
X139636500Y-61882000D01*
X139636500Y-63081250D01*
X139795250Y-63240000D01*
X139834500Y-63243072D01*
X139958982Y-63230812D01*
X140078680Y-63194502D01*
X140185224Y-63137552D01*
X136729100Y-66593677D01*
X136711841Y-66607841D01*
X136655357Y-66676668D01*
X136619169Y-66744372D01*
X136613386Y-66755191D01*
X136587540Y-66840393D01*
X136578813Y-66929000D01*
X136581000Y-66951205D01*
X136581001Y-67882673D01*
X136580397Y-67882732D01*
X136518757Y-67901430D01*
X136461950Y-67931794D01*
X136412157Y-67972657D01*
X136371294Y-68022450D01*
X136340930Y-68079257D01*
X136334500Y-68100454D01*
X136328070Y-68079257D01*
X136297706Y-68022450D01*
X136256843Y-67972657D01*
X136207050Y-67931794D01*
X136150243Y-67901430D01*
X136125713Y-67893989D01*
X136077440Y-67854372D01*
X135959829Y-67791508D01*
X135832214Y-67752796D01*
X135699500Y-67739725D01*
X135566785Y-67752796D01*
X135439170Y-67791508D01*
X135321559Y-67854372D01*
X135273286Y-67893989D01*
X135248757Y-67901430D01*
X135246755Y-67902500D01*
X134903549Y-67902500D01*
X134907371Y-63698000D01*
X136502795Y-63698000D01*
X136525000Y-63700187D01*
X136547205Y-63698000D01*
X136613607Y-63691460D01*
X136698810Y-63665614D01*
X136777333Y-63623643D01*
X136846159Y-63567159D01*
X136860323Y-63549900D01*
X137273405Y-63136819D01*
X137290659Y-63122659D01*
X137347143Y-63053833D01*
X137389114Y-62975310D01*
X137394365Y-62958000D01*
X137408257Y-62912206D01*
X137420243Y-62908570D01*
X137477050Y-62878206D01*
X137526843Y-62837343D01*
X137567706Y-62787550D01*
X137598070Y-62730743D01*
X137604500Y-62709546D01*
X137610930Y-62730743D01*
X137641294Y-62787550D01*
X137682157Y-62837343D01*
X137731950Y-62878206D01*
X137788757Y-62908570D01*
X137850397Y-62927268D01*
X137914500Y-62933582D01*
X138564500Y-62933582D01*
X138628603Y-62927268D01*
X138635603Y-62925145D01*
X138653963Y-62959494D01*
X138733315Y-63056185D01*
X138830006Y-63135537D01*
X138940320Y-63194502D01*
X139060018Y-63230812D01*
X139184500Y-63243072D01*
X139223750Y-63240000D01*
X139382500Y-63081250D01*
X139382500Y-61882000D01*
X139362500Y-61882000D01*
X139362500Y-61628000D01*
X139382500Y-61628000D01*
X139382500Y-60428750D01*
X139223750Y-60270000D01*
X139184500Y-60266928D01*
X139060018Y-60279188D01*
X138940320Y-60315498D01*
X138830006Y-60374463D01*
X138733315Y-60453815D01*
X138653963Y-60550506D01*
X138635603Y-60584855D01*
X138628603Y-60582732D01*
X138564500Y-60576418D01*
X137914500Y-60576418D01*
X137850397Y-60582732D01*
X137788757Y-60601430D01*
X137731950Y-60631794D01*
X137682157Y-60672657D01*
X137641294Y-60722450D01*
X137610930Y-60779257D01*
X137604500Y-60800454D01*
X137598070Y-60779257D01*
X137567706Y-60722450D01*
X137526843Y-60672657D01*
X137477050Y-60631794D01*
X137420243Y-60601430D01*
X137358603Y-60582732D01*
X137294500Y-60576418D01*
X136785805Y-60576418D01*
X140776225Y-56586000D01*
X146878777Y-56586000D01*
X147181276Y-56888500D01*
M02*
